<?xml version="1.0" encoding="UTF-8"?>
<!DOCTYPE svg PUBLIC "-//W3C//DTD SVG 1.1//EN" "http://www.w3.org/Graphics/SVG/1.1/DTD/svg11.dtd">
<!-- Creator: CorelDRAW X6 -->
<svg xmlns="http://www.w3.org/2000/svg" xml:space="preserve" width="5.4393mm" height="7.5899mm" version="1.1" style="shape-rendering:geometricPrecision; text-rendering:geometricPrecision; image-rendering:optimizeQuality; fill-rule:evenodd; clip-rule:evenodd"
viewBox="0 0 67 94"
 xmlns:xlink="http://www.w3.org/1999/xlink">
 <defs>
  <style type="text/css">
   <![CDATA[
    .str0 {stroke:#FEFEFE;stroke-width:2.09967}
    .str2 {stroke:#2B2A29;stroke-width:2.48041}
    .str1 {stroke:#2B2A29;stroke-width:3.15013}
    .fil1 {fill:none}
    .fil0 {fill:#2B2A29}
   ]]>
  </style>
 </defs>
 <g id="Layer_x0020_1">
  <metadata id="CorelCorpID_0Corel-Layer"/>
  <g id="_735520576">
   <g>
    <polygon class="fil0" points="58,0 55,0 50,1 47,3 45,8 46,13 49,17 48,21 47,25 44,29 42,33 41,38 42,42 43,47 46,54 48,58 49,59 49,61 49,63 49,64 49,67 47,69 45,72 44,75 44,79 44,82 45,84 46,86 46,90 46,94 62,94 63,88 63,80 64,74 66,67 67,62 67,57 67,51 67,43 67,39 66,36 65,34 63,31 60,29 58,27 56,26 56,25 57,24 57,22 58,21 63,21 64,19 64,17 64,15 65,15 65,13 64,12 64,11 64,10 64,9 64,7 64,4 63,3 61,2 60,1 "/>
    <path class="fil1 str0" d="M49 27c0,1 -4,5 -4,10 0,1 0,4 0,6 0,1 0,2 1,2 0,1 0,2 1,3 0,0 2,4 2,4 0,0 1,2 2,4 1,2 1,4 1,4 1,1 0,6 -1,7 0,0 -1,2 -1,3 0,0 -1,1 -1,1"/>
   </g>
   <g>
    <circle class="fil1 str1" cx="26" cy="52" r="12"/>
    <rect class="fil0 str2" transform="matrix(0.160241 0.177963 -0.194168 0.174827 11.9452 61.8229)" width="14.7014" height="52.5017"/>
   </g>
  </g>
 </g>
</svg>
