<?xml version="1.0" encoding="UTF-8" standalone="no"?>
<!-- Generated by IcoMoon.io -->

<svg
   xmlns:dc="http://purl.org/dc/elements/1.1/"
   xmlns:cc="http://creativecommons.org/ns#"
   xmlns:rdf="http://www.w3.org/1999/02/22-rdf-syntax-ns#"
   xmlns:svg="http://www.w3.org/2000/svg"
   xmlns="http://www.w3.org/2000/svg"
   xmlns:sodipodi="http://sodipodi.sourceforge.net/DTD/sodipodi-0.dtd"
   xmlns:inkscape="http://www.inkscape.org/namespaces/inkscape"
   version="1.1"
   width="15"
   height="14"
   viewBox="0 0 15 14"
   id="svg2"
   inkscape:version="0.48.4 r9939"
   sodipodi:docname="thearpy-plan.svg">
  <metadata
     id="metadata10">
    <rdf:RDF>
      <cc:Work
         rdf:about="">
        <dc:format>image/svg+xml</dc:format>
        <dc:type
           rdf:resource="http://purl.org/dc/dcmitype/StillImage" />
        <dc:title></dc:title>
      </cc:Work>
    </rdf:RDF>
  </metadata>
  <defs
     id="defs8">
 <style
   id="style3016"
   type="text/css">
   
    .str0 {stroke:#FEFEFE;stroke-width:2.09967}
    .str2 {stroke:#2B2A29;stroke-width:2.48041}
    .str1 {stroke:#2B2A29;stroke-width:3.15013}
    .fil1 {fill:none}
    .fil0 {fill:#2B2A29}
   
  </style>

  
 <style
   id="style3078"
   type="text/css">
   
    .fil0 {fill:#2B2A29}
   
  </style>

  
 <style
   id="style3140"
   type="text/css">
   
    .fil0 {fill:#2B2A29}
   
  </style>

  
 <style
   id="style3196"
   type="text/css">
   
    .str2 {stroke:#2B2A29;stroke-width:3.74572}
    .str1 {stroke:#2B2A29;stroke-width:7.92781}
    .str0 {stroke:#008DD2;stroke-width:7.92781}
    .fil0 {fill:none}
    .fil1 {fill:#2B2A29}
   
  </style>

  
 <style
   id="style3261"
   type="text/css">
   
    .str2 {stroke:#2B2A29;stroke-width:12.3603}
    .str1 {stroke:#2B2A29;stroke-width:20.9322}
    .str0 {stroke:#2B2A29;stroke-width:26.1606}
    .fil0 {fill:none}
    .fil1 {fill:#2B2A29}
   
  </style>

  
 <style
   id="style3345"
   type="text/css">
   
    .str1 {stroke:#2B2A29;stroke-width:0.637397}
    .str0 {stroke:#2B2A29;stroke-width:1.34905}
    .fil0 {fill:none}
    .fil1 {fill:#2B2A29}
   
  </style>

  
 <style
   id="style3417"
   type="text/css">
   
    .str1 {stroke:#2B2A29;stroke-width:63.7397}
    .str0 {stroke:#2B2A29;stroke-width:134.905}
    .fil0 {fill:none}
    .fil1 {fill:#2B2A29}
   
  </style>

  
 <style
   id="style3505"
   type="text/css">
   
    .str0 {stroke:#2B2A29;stroke-width:109.301}
    .fil0 {fill:none}
    .fil1 {fill:#2B2A29}
    .fil2 {fill:#2B2A29;fill-rule:nonzero}
   
  </style>

  
 <style
   id="style3606"
   type="text/css">
   
    .str2 {stroke:#2B2A29;stroke-width:33.9841}
    .str1 {stroke:#2B2A29;stroke-width:57.5522}
    .str0 {stroke:#2B2A29;stroke-width:71.9274}
    .fil0 {fill:none}
    .fil1 {fill:#2B2A29}
   
  </style>

  </defs>
  <sodipodi:namedview
     pagecolor="#ffffff"
     bordercolor="#666666"
     borderopacity="1"
     objecttolerance="10"
     gridtolerance="10"
     guidetolerance="10"
     inkscape:pageopacity="0"
     inkscape:pageshadow="2"
     inkscape:window-width="1503"
     inkscape:window-height="925"
     id="namedview6"
     showgrid="false"
     inkscape:zoom="5.9599"
     inkscape:cx="56.59687"
     inkscape:cy="30.634566"
     inkscape:window-x="0"
     inkscape:window-y="0"
     inkscape:window-maximized="0"
     inkscape:current-layer="svg2" />
  <path
     d="m 23.805085,11.355932 q 0,-0.414 -0.293,-0.707 -0.293,-0.293 -0.707,-0.293 -0.414,0 -0.707,0.293 -0.293,0.293 -0.293,0.707 0,0.414 0.293,0.707 0.293,0.293 0.707,0.293 0.414,0 0.707,-0.293 0.293,-0.293 0.293,-0.707 z m -3,-3.9999998 h 3 v -2 h -1.234 q -0.109,0.016 -0.172,0.07 l -1.523,1.523 q -0.055,0.094 -0.07,0.172 v 0.234 z m 10,3.9999998 q 0,-0.414 -0.293,-0.707 -0.293,-0.293 -0.707,-0.293 -0.414,0 -0.707,0.293 -0.293,0.293 -0.293,0.707 0,0.414 0.293,0.707 0.293,0.293 0.707,0.293 0.414,0 0.707,-0.293 0.293,-0.293 0.293,-0.707 z m 1,-5.2499998 v -1.5 q 0,-0.109 -0.07,-0.18 -0.07,-0.071 -0.18,-0.07 h -1.75 v -1.75 q 0,-0.109 -0.07,-0.18 -0.07,-0.071 -0.18,-0.07 h -1.5 q -0.109,0 -0.18,0.07 -0.071,0.07 -0.07,0.18 v 1.75 h -1.75 q -0.109,0 -0.18,0.07 -0.071,0.07 -0.07,0.18 v 1.5 q 0,0.109 0.07,0.18 0.07,0.071 0.18,0.07 h 1.75 v 1.75 q 0,0.109 0.07,0.18 0.07,0.071 0.18,0.07 h 1.5 q 0.109,0 0.18,-0.07 0.071,-0.07 0.07,-0.18 v -1.75 h 1.75 q 0.109,0 0.18,-0.07 0.071,-0.07 0.07,-0.18 z m 2,-4.25 v 8.9999998 q 0,0.203 -0.148,0.352 -0.148,0.149 -0.352,0.148 h -1.5 q 0,0.828 -0.586,1.414 -0.586,0.586 -1.414,0.586 -0.828,0 -1.414,-0.586 -0.586,-0.586 -0.586,-1.414 h -3 q 0,0.828 -0.586,1.414 -0.586,0.586 -1.414,0.586 -0.828,0 -1.414,-0.586 -0.586,-0.586 -0.586,-1.414 h -1 q -0.203,0 -0.352,-0.148 -0.149,-0.148 -0.148,-0.352 0.001,-0.204 0.148,-0.352 0.147,-0.148 0.352,-0.148 V 7.1059322 q 0,-0.203 0.102,-0.453 0.102,-0.25 0.25,-0.398 l 1.547,-1.547 q 0.148,-0.148 0.398,-0.25 0.25,-0.102 0.453,-0.102 h 1.25 v -2.5 q 0,-0.203 0.148,-0.352 0.148,-0.149 0.352,-0.148 h 9 q 0.203,0 0.352,0.148 0.149,0.148 0.148,0.352 z"
     id="path4"
     inkscape:connector-curvature="0"
     style="fill:#444444" />
  <g
     style="fill-rule:evenodd"
     id="g3038"
     transform="matrix(0.14939072,0,0,0.14939072,-23.054686,-0.89266485)">
    <g
       id="Layer_x0020_1">
  <metadata
   id="CorelCorpID_0Corel-Layer" />

  <g
   id="_735520576">
   <g
   id="g3021">
    <polygon
   id="polygon3023"
   points="48,21 47,25 44,29 42,33 41,38 42,42 43,47 46,54 48,58 49,59 49,61 49,63 49,64 49,67 47,69 45,72 44,75 44,79 44,82 45,84 46,86 46,90 46,94 62,94 63,88 63,80 64,74 66,67 67,62 67,57 67,51 67,43 67,39 66,36 65,34 63,31 60,29 58,27 56,26 56,25 57,24 57,22 58,21 63,21 64,19 64,17 64,15 65,15 65,13 64,12 64,11 64,10 64,9 64,7 64,4 63,3 61,2 60,1 58,0 55,0 50,1 47,3 45,8 46,13 49,17 "
   class="fil0"
   style="fill:#2b2a29" />

    <path
   id="path3025"
   d="m 49,27 c 0,1 -4,5 -4,10 0,1 0,4 0,6 0,1 0,2 1,2 0,1 0,2 1,3 0,0 2,4 2,4 0,0 1,2 2,4 1,2 1,4 1,4 1,1 0,6 -1,7 0,0 -1,2 -1,3 0,0 -1,1 -1,1"
   class="fil1 str0"
   inkscape:connector-curvature="0"
   style="fill:none;stroke:#fefefe;stroke-width:2.09966993" />

   </g>

   <g
   id="g3027">
    <circle
   id="circle3029"
   r="12"
   cy="52"
   cx="26"
   class="fil1 str1"
   sodipodi:cx="26"
   sodipodi:cy="52"
   sodipodi:rx="12"
   sodipodi:ry="12"
   style="fill:none;stroke:#2b2a29;stroke-width:3.15013003"
   d="m 38,52 c 0,6.627417 -5.372583,12 -12,12 -6.627417,0 -12,-5.372583 -12,-12 0,-6.627417 5.372583,-12 12,-12 6.627417,0 12,5.372583 12,12 z" />

    <rect
   id="rect3031"
   height="52.501701"
   width="14.7014"
   transform="matrix(0.160241,0.177963,-0.194168,0.174827,11.9452,61.8229)"
   class="fil0 str2"
   x="0"
   y="0"
   style="fill:#2b2a29;stroke:#2b2a29;stroke-width:2.4804101" />

   </g>

  </g>

 </g>
  </g>
  <g
     style="fill-rule:evenodd"
     id="g3100"
     transform="matrix(0.16317535,0,0,0.16317535,44.771138,0.76744059)">
    <g
       id="Layer_x0020_1-1">
  <metadata
   id="CorelCorpID_0Corel-Layer-7" />

  <g
   id="_742870944">
   <circle
   id="circle3083"
   r="7"
   cy="7"
   cx="70"
   class="fil0"
   sodipodi:cx="70"
   sodipodi:cy="7"
   sodipodi:rx="7"
   sodipodi:ry="7"
   style="fill:#2b2a29"
   d="m 77,7 c 0,3.865993 -3.134007,7 -7,7 -3.865993,0 -7,-3.134007 -7,-7 0,-3.8659932 3.134007,-7 7,-7 3.865993,0 7,3.1340068 7,7 z" />

   <rect
   id="rect3085"
   height="33.240299"
   width="11.7306"
   y="15"
   x="65"
   class="fil0"
   style="fill:#2b2a29" />

   <rect
   id="rect3087"
   height="39.666199"
   width="6.8427401"
   y="46"
   x="67"
   class="fil0"
   style="fill:#2b2a29" />

   <g
   id="g3089">
    <rect
   id="rect3091"
   ry="4"
   rx="4"
   height="23.463499"
   width="34.217201"
   y="27"
   class="fil0"
   x="0"
   style="fill:#2b2a29" />

    <polygon
   id="polygon3093"
   points="38,42 38,35 49,30 49,47 "
   class="fil0"
   style="fill:#2b2a29" />

   </g>

  </g>

 </g>
  </g>
  <g
     style="fill-rule:evenodd"
     id="g3162"
     transform="matrix(0.04130749,0,0,0.04130749,41.078086,-15.754996)">
    <g
       id="Layer_x0020_1-4">
  <metadata
   id="CorelCorpID_0Corel-Layer-0" />

  <g
   id="_742871296">
   <g
   id="g3145">
    <circle
   id="circle3147"
   r="28"
   cy="28"
   cx="348"
   class="fil0"
   sodipodi:cx="348"
   sodipodi:cy="28"
   sodipodi:rx="28"
   sodipodi:ry="28"
   style="fill:#2b2a29"
   d="m 376,28 c 0,15.463973 -12.53603,28 -28,28 -15.46397,0 -28,-12.536027 -28,-28 0,-15.463973 12.53603,-28 28,-28 15.46397,0 28,12.536027 28,28 z" />

    <polygon
   id="polygon3149"
   points="312,109 313,121 276,259 237,328 244,342 256,344 264,336 308,267 325,212 376,270 382,310 384,335 388,342 394,348 404,348 408,336 406,263 349,188 363,125 367,125 386,149 424,180 436,180 440,172 430,160 394,133 382,109 368,73 361,64 337,64 268,115 252,180 258,190 268,190 280,133 "
   class="fil0"
   style="fill:#2b2a29" />

   </g>

   <g
   id="g3151">
    <rect
   id="rect3153"
   ry="16"
   rx="16"
   height="94.594902"
   width="137.94901"
   y="109"
   class="fil0"
   x="0"
   style="fill:#2b2a29" />

    <polygon
   id="polygon3155"
   points="152,171 152,141 197,122 197,191 "
   class="fil0"
   style="fill:#2b2a29" />

   </g>

  </g>

 </g>
  </g>
  <g
     style="fill-rule:evenodd"
     id="g3212"
     transform="matrix(0.12254928,0,0,0.12254928,-23.753633,-15.597893)">
    <g
       id="Layer_x0020_1-9">
  <metadata
   id="CorelCorpID_0Corel-Layer-4" />

  <g
   id="_742870592">
   <polyline
   id="polyline3201"
   points="41,3 74,31 56,46 94,49 69,67 102,95 "
   class="fil0 str0"
   style="fill:none;stroke:#008dd2;stroke-width:7.92781019" />

   <circle
   id="circle3203"
   r="40"
   cy="44"
   cx="73"
   class="fil0 str1"
   sodipodi:cx="73"
   sodipodi:cy="44"
   sodipodi:rx="40"
   sodipodi:ry="40"
   style="fill:none;stroke:#2b2a29;stroke-width:7.92781019"
   d="M 113,44 C 113,66.09139 95.09139,84 73,84 50.90861,84 33,66.09139 33,44 33,21.90861 50.90861,4 73,4 c 22.09139,0 40,17.90861 40,40 z" />

   <rect
   id="rect3205"
   height="79.283699"
   width="22.200899"
   transform="matrix(0.337896,0.375272,-0.409438,0.36866,35.1067,74.2792)"
   class="fil1 str2"
   x="0"
   y="0"
   style="fill:#2b2a29;stroke:#2b2a29;stroke-width:3.74571991" />

  </g>

 </g>
  </g>
  <g
     style="fill-rule:evenodd"
     id="g3295"
     transform="matrix(0.03648801,0,0,0.03648801,84.27118,-40.925915)">
    <g
       id="Layer_x0020_1-8">
  <metadata
   id="CorelCorpID_0Corel-Layer-8" />

  <g
   id="_742872352">
   <rect
   id="rect3266"
   height="367"
   width="312"
   y="13"
   x="13"
   class="fil0 str0"
   style="fill:none;stroke:#2b2a29;stroke-width:26.16060066" />

   <line
   id="line3268"
   y2="70"
   x2="224"
   y1="70"
   x1="52"
   class="fil0 str1"
   style="fill:none;stroke:#2b2a29;stroke-width:20.93219948" />

   <line
   id="line3270"
   y2="123"
   x2="256"
   y1="123"
   x1="52"
   class="fil0 str1"
   style="fill:none;stroke:#2b2a29;stroke-width:20.93219948" />

   <line
   id="line3272"
   y2="183"
   x2="231"
   y1="183"
   x1="50"
   class="fil0 str1"
   style="fill:none;stroke:#2b2a29;stroke-width:20.93219948" />

   <line
   id="line3274"
   y2="233"
   x2="258"
   y1="233"
   x1="50"
   class="fil0 str1"
   style="fill:none;stroke:#2b2a29;stroke-width:20.93219948" />

   <line
   id="line3276"
   y2="293"
   x2="224"
   y1="293"
   x1="52"
   class="fil0 str1"
   style="fill:none;stroke:#2b2a29;stroke-width:20.93219948" />

   <circle
   id="circle3278"
   r="14"
   cy="336"
   cx="75"
   class="fil1 str2"
   sodipodi:cx="75"
   sodipodi:cy="336"
   sodipodi:rx="14"
   sodipodi:ry="14"
   style="fill:#2b2a29;stroke:#2b2a29;stroke-width:12.36030006"
   d="m 89,336 c 0,7.73199 -6.268014,14 -14,14 -7.731986,0 -14,-6.26801 -14,-14 0,-7.73199 6.268014,-14 14,-14 7.731986,0 14,6.26801 14,14 z" />

   <circle
   id="circle3280"
   r="14"
   cy="336"
   cx="144"
   class="fil1 str2"
   sodipodi:cx="144"
   sodipodi:cy="336"
   sodipodi:rx="14"
   sodipodi:ry="14"
   style="fill:#2b2a29;stroke:#2b2a29;stroke-width:12.36030006"
   d="m 158,336 c 0,7.73199 -6.26801,14 -14,14 -7.73199,0 -14,-6.26801 -14,-14 0,-7.73199 6.26801,-14 14,-14 7.73199,0 14,6.26801 14,14 z" />

   <g
   id="g3282">
    <rect
   id="rect3284"
   height="507.55899"
   width="62.790501"
   transform="matrix(0.35863,0.251116,-0.240759,0.34384,352.885,61.4514)"
   class="fil1 str2"
   x="0"
   y="0"
   style="fill:#2b2a29;stroke:#2b2a29;stroke-width:12.36030006" />

    <rect
   id="rect3286"
   height="507.55899"
   width="62.790501"
   transform="matrix(0.35863,0.251116,-0.0181196,0.0258775,371.287,35.1716)"
   class="fil1 str2"
   x="0"
   y="0"
   style="fill:#2b2a29;stroke:#2b2a29;stroke-width:12.36030006" />

    <polygon
   id="polygon3288"
   points="228,236 254,255 225,268 "
   class="fil1"
   style="fill:#2b2a29" />

   </g>

  </g>

 </g>
  </g>
  <g
     style="fill-rule:evenodd"
     id="g3443"
     transform="matrix(0.00400424,0,0,0.00400424,0.55943298,0.47095286)">
    <g
       id="Layer_x0020_1-5">
  <metadata
   id="CorelCorpID_0Corel-Layer-1" />

  <g
   id="_163747680">
   <circle
   id="circle3422"
   r="1193"
   cy="1260"
   cx="2172"
   class="fil0 str0"
   sodipodi:cx="2172"
   sodipodi:cy="1260"
   sodipodi:rx="1193"
   sodipodi:ry="1193"
   style="fill:none;stroke:#2b2a29;stroke-width:134.90499878"
   d="m 3365,1260 c 0,658.8757 -534.1243,1193 -1193,1193 C 1513.1243,2453 979,1918.8757 979,1260 979,601.12429 1513.1243,67 2172,67 c 658.8757,0 1193,534.12429 1193,1193 z" />

   <rect
   id="rect3424"
   height="1349"
   width="378"
   transform="matrix(0.598663,0.664883,-0.725416,0.653168,1023.69,2166.53)"
   class="fil1 str1"
   x="0"
   y="0"
   style="fill:#2b2a29;stroke:#2b2a29;stroke-width:63.73970032" />

   <g
   id="g3426">
    <circle
   id="circle3428"
   r="67"
   cy="479"
   cx="2133"
   class="fil1 str1"
   sodipodi:cx="2133"
   sodipodi:cy="479"
   sodipodi:rx="67"
   sodipodi:ry="67"
   style="fill:#2b2a29;stroke:#2b2a29;stroke-width:63.73970032"
   d="m 2200,479 c 0,37.00308 -29.9969,67 -67,67 -37.0031,0 -67,-29.99692 -67,-67 0,-37.00308 29.9969,-67 67,-67 37.0031,0 67,29.99692 67,67 z" />

    <circle
   id="circle3430"
   r="67"
   cy="896"
   cx="2193"
   class="fil1 str1"
   sodipodi:cx="2193"
   sodipodi:cy="896"
   sodipodi:rx="67"
   sodipodi:ry="67"
   style="fill:#2b2a29;stroke:#2b2a29;stroke-width:63.73970032"
   d="m 2260,896 c 0,37.00308 -29.9969,67 -67,67 -37.0031,0 -67,-29.99692 -67,-67 0,-37.00308 29.9969,-67 67,-67 37.0031,0 67,29.99692 67,67 z" />

    <circle
   id="circle3432"
   r="67"
   cy="1314"
   cx="2133"
   class="fil1 str1"
   sodipodi:cx="2133"
   sodipodi:cy="1314"
   sodipodi:rx="67"
   sodipodi:ry="67"
   style="fill:#2b2a29;stroke:#2b2a29;stroke-width:63.73970032"
   d="m 2200,1314 c 0,37.0031 -29.9969,67 -67,67 -37.0031,0 -67,-29.9969 -67,-67 0,-37.0031 29.9969,-67 67,-67 37.0031,0 67,29.9969 67,67 z" />

    <circle
   id="circle3434"
   r="67"
   cy="1731"
   cx="2074"
   class="fil1 str1"
   sodipodi:cx="2074"
   sodipodi:cy="1731"
   sodipodi:rx="67"
   sodipodi:ry="67"
   style="fill:#2b2a29;stroke:#2b2a29;stroke-width:63.73970032"
   d="m 2141,1731 c 0,37.0031 -29.9969,67 -67,67 -37.0031,0 -67,-29.9969 -67,-67 0,-37.0031 29.9969,-67 67,-67 37.0031,0 67,29.9969 67,67 z" />

    <circle
   id="circle3436"
   r="67"
   cy="2148"
   cx="2133"
   class="fil1 str1"
   sodipodi:cx="2133"
   sodipodi:cy="2148"
   sodipodi:rx="67"
   sodipodi:ry="67"
   style="fill:#2b2a29;stroke:#2b2a29;stroke-width:63.73970032"
   d="m 2200,2148 c 0,37.0031 -29.9969,67 -67,67 -37.0031,0 -67,-29.9969 -67,-67 0,-37.0031 29.9969,-67 67,-67 37.0031,0 67,29.9969 67,67 z" />

   </g>

  </g>

 </g>
  </g>
  <g
     style="fill-rule:evenodd"
     id="g3547"
     transform="matrix(0.00398172,0,0,0.00398172,113.49891,-4.7712946)">
    <g
       id="Layer_x0020_1-7">
  <metadata
   id="CorelCorpID_0Corel-Layer-11" />

  <circle
   id="circle3509"
   r="1208"
   cy="1263"
   cx="2232"
   class="fil0 str0"
   sodipodi:cx="2232"
   sodipodi:cy="1263"
   sodipodi:rx="1208"
   sodipodi:ry="1208"
   style="fill:none;stroke:#2b2a29;stroke-width:109.3010025"
   d="m 3440,1263 c 0,667.16 -540.84,1208 -1208,1208 -667.16,0 -1208,-540.84 -1208,-1208 0,-667.15998 540.84,-1208 1208,-1208 667.16,0 1208,540.84002 1208,1208 z" />

  <g
   id="g3511">
   <polygon
   id="polygon3513"
   points="1298,2435 1069,2181 77,3073 306,3328 "
   class="fil1"
   style="fill:#2b2a29" />

   <path
   d="m 1109,2144 229,254 -81,74 -229,-255 4,-77 77,4 z m -77,-4 41,-37 36,41 -77,-4 z m -991,893 991,-893 73,81 -991,893 -77,-4 4,-77 z m -4,77 -37,-41 41,-36 -4,77 z m 229,254 -229,-254 81,-73 229,254 -4,77 -77,-4 z m 77,4 -41,37 -36,-41 77,4 z m 991,-892 -991,892 -73,-81 991,-892 77,3 -4,78 z m 4,-78 37,41 -41,37 4,-78 z"
   class="fil2"
   id="1"
   inkscape:connector-curvature="0"
   style="fill:#2b2a29;fill-rule:nonzero" />

  </g>

  <g
   id="g3516">
   <path
   id="path3518"
   d="m 2192,403 c 38,0 69,31 69,69 0,38 -31,68 -69,68 -37,0 -68,-30 -68,-68 0,-38 31,-69 68,-69 z"
   class="fil1"
   inkscape:connector-curvature="0"
   style="fill:#2b2a29" />

   <path
   d="m 2315,472 -109,0 0,0 0,-1 0,-1 0,0 0,-1 0,-1 -1,0 0,-1 0,0 0,-1 0,-1 -1,0 0,-1 -1,-1 0,0 0,0 -1,-1 0,0 -1,-1 0,0 -1,-1 0,0 -1,0 -1,-1 0,0 -1,0 0,0 -1,0 -1,-1 0,0 -1,0 -1,0 -1,0 0,-109 7,0 6,0 6,1 6,1 6,2 6,1 6,2 6,3 5,2 5,3 5,3 5,3 5,3 5,4 4,4 4,4 4,4 4,4 4,5 3,5 4,5 3,5 2,5 3,6 2,6 2,5 2,6 1,6 1,6 1,6 0,7 0,6 0,0 z m -123,123 0,-110 0,0 1,0 1,0 1,0 0,0 1,0 1,0 0,0 1,-1 0,0 1,0 1,-1 0,0 1,0 0,-1 1,0 0,-1 1,0 0,-1 0,0 1,-1 0,0 1,-1 0,-1 0,0 0,-1 1,0 0,-1 0,-1 0,0 0,-1 0,0 0,-1 109,0 0,6 0,6 -1,6 -1,7 -1,5 -2,6 -2,6 -2,6 -3,5 -2,5 -3,6 -4,5 -3,4 -4,5 -4,5 -4,4 -4,4 -4,4 -5,3 -5,4 -5,3 -5,3 -5,2 -5,3 -6,2 -6,2 -6,2 -6,1 -6,1 -6,1 -6,1 -7,0 0,0 z m -122,-123 109,0 0,0 0,1 0,0 0,1 0,0 0,1 0,1 1,0 0,1 0,0 1,1 0,1 0,0 1,1 0,0 0,1 1,0 0,1 1,0 0,1 1,0 0,0 1,1 1,0 0,0 1,1 0,0 1,0 1,0 0,0 1,0 1,0 0,0 0,110 -6,0 -6,-1 -6,-1 -6,-1 -6,-1 -6,-2 -6,-2 -6,-2 -5,-3 -5,-2 -5,-3 -5,-3 -5,-4 -5,-3 -4,-4 -4,-4 -4,-4 -4,-5 -4,-5 -3,-4 -4,-5 -3,-6 -2,-5 -3,-5 -2,-6 -2,-6 -2,-6 -1,-5 -1,-7 -1,-6 0,-6 0,-6 0,0 z m 122,-123 0,109 0,0 0,0 -1,0 -1,0 0,0 -1,1 -1,0 0,0 -1,0 0,0 -1,1 -1,0 0,0 -1,1 0,0 -1,1 0,0 -1,1 0,0 0,0 -1,1 0,1 0,0 -1,1 0,1 0,0 -1,1 0,0 0,1 0,1 0,0 0,1 0,1 -109,0 0,-6 0,-7 1,-6 1,-6 1,-6 2,-6 2,-5 2,-6 3,-6 2,-5 3,-5 4,-5 3,-5 4,-5 4,-4 4,-4 4,-4 4,-4 5,-4 5,-3 5,-3 5,-3 5,-3 5,-2 6,-3 6,-2 6,-1 6,-2 6,-1 6,-1 6,0 6,0 0,0 z"
   class="fil2"
   id="path3520"
   inkscape:connector-curvature="0"
   style="fill:#2b2a29;fill-rule:nonzero" />

  </g>

  <g
   id="g3522">
   <path
   id="path3524"
   d="m 2253,826 c 38,0 68,31 68,68 0,38 -30,69 -68,69 -38,0 -69,-31 -69,-69 0,-37 31,-68 69,-68 z"
   class="fil1"
   inkscape:connector-curvature="0"
   style="fill:#2b2a29" />

   <path
   d="m 2376,894 -110,0 0,0 0,0 0,-1 0,-1 0,0 0,-1 0,-1 0,0 0,-1 -1,0 0,-1 -1,-1 0,0 0,-1 -1,0 0,-1 0,0 -1,-1 -1,0 0,-1 -1,0 0,0 -1,-1 0,0 -1,0 0,-1 -1,0 -1,0 -1,0 0,0 -1,0 0,0 -1,0 0,-110 6,0 6,1 6,1 7,1 6,1 5,2 6,2 6,2 5,2 5,3 6,3 5,3 4,4 5,4 5,3 4,4 4,4 4,5 3,5 4,5 3,5 3,5 3,5 2,5 2,6 2,6 2,6 1,5 1,7 1,6 1,6 0,6 0,0 z m -123,123 0,-109 0,0 1,0 0,0 1,0 0,0 1,-1 1,0 1,0 0,0 1,0 0,-1 1,0 0,0 1,-1 0,0 1,-1 1,0 0,-1 0,0 1,0 0,-1 1,-1 0,0 0,-1 1,-1 0,0 0,0 0,-1 0,-1 0,-1 0,0 0,-1 0,-1 110,0 0,7 -1,6 -1,6 -1,6 -1,6 -2,6 -2,5 -2,6 -2,6 -3,5 -3,5 -3,5 -4,5 -3,4 -4,5 -4,4 -4,4 -5,4 -5,4 -4,3 -5,3 -6,3 -5,3 -5,2 -6,3 -6,2 -5,1 -6,2 -7,1 -6,1 -6,0 -6,0 0,0 z m -123,-123 109,0 0,0 0,1 0,1 0,0 0,1 1,1 0,1 0,0 0,0 0,1 1,1 0,0 0,1 1,1 0,0 1,0 0,1 1,0 0,1 1,0 0,1 1,0 0,0 1,1 1,0 0,0 1,0 0,0 1,1 1,0 0,0 1,0 1,0 0,109 -6,0 -7,0 -6,-1 -6,-1 -6,-2 -6,-1 -5,-2 -6,-3 -6,-2 -5,-3 -5,-3 -5,-3 -5,-3 -5,-4 -4,-4 -4,-4 -4,-4 -4,-5 -4,-4 -3,-5 -3,-5 -3,-5 -3,-5 -2,-6 -3,-6 -2,-5 -1,-6 -2,-6 -1,-6 -1,-6 0,-6 0,-7 0,0 z m 123,-123 0,110 0,0 -1,0 -1,0 0,0 -1,0 -1,0 0,0 -1,0 0,1 -1,0 -1,0 0,1 -1,0 0,0 -1,1 0,0 -1,1 0,0 -1,1 0,0 -1,1 0,0 0,1 -1,1 0,0 0,1 0,0 0,1 -1,1 0,0 0,1 0,1 0,0 -109,0 0,-6 0,-6 1,-6 1,-7 2,-5 1,-6 2,-6 3,-6 2,-5 3,-5 3,-5 3,-5 3,-5 4,-5 4,-5 4,-4 4,-4 4,-3 5,-4 5,-4 5,-3 5,-3 5,-3 6,-2 6,-2 5,-2 6,-2 6,-1 6,-1 6,-1 7,-1 6,0 0,0 z"
   class="fil2"
   id="path3526"
   inkscape:connector-curvature="0"
   style="fill:#2b2a29;fill-rule:nonzero" />

  </g>

  <g
   id="g3528">
   <path
   id="path3530"
   d="m 2192,1248 c 38,0 69,31 69,69 0,38 -31,68 -69,68 -37,0 -68,-30 -68,-68 0,-38 31,-69 68,-69 z"
   class="fil1"
   inkscape:connector-curvature="0"
   style="fill:#2b2a29" />

   <path
   d="m 2315,1317 -109,0 0,0 0,-1 0,-1 0,0 0,-1 0,-1 -1,-1 0,0 0,0 0,-1 0,-1 -1,0 0,-1 -1,-1 0,0 0,0 -1,-1 0,0 -1,-1 0,0 -1,-1 0,0 -1,0 -1,-1 0,0 -1,0 0,0 -1,0 -1,-1 0,0 -1,0 -1,0 -1,0 0,-109 7,0 6,0 6,1 6,1 6,2 6,1 6,2 6,3 5,2 5,3 5,3 5,3 5,3 5,4 4,4 4,4 4,4 4,5 4,4 3,5 4,5 2,5 3,5 3,6 2,6 2,5 2,6 1,6 1,6 1,6 0,6 0,7 0,0 z m -123,123 0,-110 0,0 1,0 1,0 1,0 0,0 1,0 1,0 0,0 1,-1 0,0 1,0 1,-1 0,0 1,0 0,-1 1,0 0,-1 1,0 0,0 0,-1 1,-1 0,0 1,-1 0,-1 0,0 0,0 0,-1 1,-1 0,-1 0,0 0,-1 0,0 0,-1 109,0 0,6 0,6 -1,6 -1,7 -1,5 -2,6 -2,6 -2,6 -3,5 -3,6 -2,5 -4,5 -3,4 -4,5 -4,5 -4,4 -4,4 -4,3 -5,4 -5,4 -5,3 -5,3 -5,3 -5,2 -6,2 -6,2 -6,2 -6,1 -6,1 -6,1 -6,1 -7,0 0,0 z m -122,-123 109,0 0,0 0,1 0,0 0,1 0,0 0,1 0,1 1,1 0,0 0,0 0,1 1,1 0,0 1,1 0,1 0,0 1,0 0,1 1,0 0,1 1,0 0,0 1,1 1,0 0,0 1,1 0,0 1,0 1,0 0,0 1,0 1,0 0,0 0,110 -6,0 -6,-1 -6,-1 -6,-1 -6,-1 -6,-2 -6,-2 -6,-2 -5,-2 -5,-3 -5,-3 -5,-3 -5,-4 -5,-4 -4,-3 -4,-4 -4,-4 -4,-5 -4,-5 -3,-4 -4,-5 -3,-6 -2,-5 -3,-5 -2,-6 -2,-6 -2,-6 -1,-5 -1,-7 -1,-6 0,-6 0,-6 0,0 z m 122,-123 0,109 0,0 0,0 -1,0 -1,0 0,0 -1,1 -1,0 0,0 -1,0 0,0 -1,1 -1,0 0,0 -1,1 0,0 -1,1 0,0 -1,1 0,0 0,0 -1,1 0,1 -1,0 0,1 0,1 0,0 -1,0 0,1 0,1 0,1 0,0 0,1 0,1 -109,0 0,-7 0,-6 1,-6 1,-6 1,-6 2,-6 2,-5 2,-6 3,-6 2,-5 3,-5 4,-5 3,-5 4,-4 4,-5 4,-4 4,-4 4,-4 5,-4 5,-3 5,-3 5,-3 5,-3 5,-2 6,-3 6,-2 6,-1 6,-2 6,-1 6,-1 6,0 6,0 0,0 z"
   class="fil2"
   id="path3532"
   inkscape:connector-curvature="0"
   style="fill:#2b2a29;fill-rule:nonzero" />

  </g>

  <circle
   id="circle3534"
   r="68"
   cy="1739"
   cx="2132"
   class="fil1 str0"
   sodipodi:cx="2132"
   sodipodi:cy="1739"
   sodipodi:rx="68"
   sodipodi:ry="68"
   style="fill:#2b2a29;stroke:#2b2a29;stroke-width:109.3010025"
   d="m 2200,1739 c 0,37.5554 -30.4446,68 -68,68 -37.5554,0 -68,-30.4446 -68,-68 0,-37.5554 30.4446,-68 68,-68 37.5554,0 68,30.4446 68,68 z" />

  <g
   id="g3536">
   <path
   id="path3538"
   d="m 2192,2093 c 38,0 69,31 69,69 0,37 -31,68 -69,68 -37,0 -68,-31 -68,-68 0,-38 31,-69 68,-69 z"
   class="fil1"
   inkscape:connector-curvature="0"
   style="fill:#2b2a29" />

   <path
   d="m 2315,2162 -109,0 0,0 0,-1 0,-1 0,0 0,-1 0,-1 -1,-1 0,0 0,0 0,-1 0,-1 -1,0 0,-1 -1,-1 0,0 0,0 -1,-1 0,0 -1,-1 0,0 -1,-1 0,0 -1,0 -1,-1 0,0 -1,0 0,0 -1,0 -1,-1 0,0 -1,0 -1,0 -1,0 0,-109 7,0 6,0 6,1 6,1 6,2 6,1 6,2 6,3 5,2 5,3 5,3 5,3 5,3 5,4 4,4 4,4 4,4 4,5 4,4 3,5 4,5 2,5 3,5 3,6 2,6 2,5 2,6 1,6 1,6 1,6 0,6 0,7 0,0 z m -123,123 0,-110 0,0 1,0 1,0 1,0 0,0 1,0 1,0 0,0 1,-1 0,0 1,0 1,-1 0,0 1,0 0,-1 1,0 0,-1 1,0 0,-1 0,0 1,-1 0,0 1,-1 0,-1 0,0 0,0 0,-1 1,-1 0,-1 0,0 0,-1 0,-1 0,0 109,0 0,6 0,6 -1,6 -1,7 -1,5 -2,6 -2,6 -2,6 -3,5 -3,6 -2,5 -4,4 -3,5 -4,5 -4,5 -4,4 -4,4 -4,3 -5,4 -5,4 -5,3 -5,3 -5,3 -5,2 -6,2 -6,2 -6,2 -6,1 -6,1 -6,1 -6,1 -7,0 0,0 z m -122,-123 109,0 0,0 0,0 0,1 0,1 0,0 0,1 0,1 1,1 0,0 0,0 0,1 1,1 0,0 1,1 0,0 0,1 1,0 0,1 1,0 0,1 1,0 0,0 1,1 1,0 0,0 1,1 0,0 1,0 1,0 0,0 1,0 1,0 0,0 0,110 -6,0 -6,-1 -6,-1 -6,-1 -6,-1 -6,-2 -6,-2 -6,-2 -5,-2 -5,-3 -5,-3 -5,-3 -5,-4 -5,-4 -4,-3 -4,-4 -4,-4 -4,-5 -4,-5 -3,-4 -4,-5 -3,-6 -2,-5 -3,-5 -2,-6 -2,-6 -2,-6 -1,-5 -1,-7 -1,-6 0,-6 0,-6 0,0 z m 122,-123 0,109 0,0 0,0 -1,0 -1,0 0,0 -1,1 -1,0 0,0 -1,0 0,0 -1,1 -1,0 0,0 -1,1 0,0 -1,1 0,0 -1,1 0,0 0,0 -1,1 0,1 -1,0 0,1 0,1 0,0 -1,0 0,1 0,1 0,1 0,0 0,1 0,1 -109,0 0,-7 0,-6 1,-6 1,-6 1,-6 2,-6 2,-5 2,-6 3,-6 2,-5 3,-5 4,-5 3,-5 4,-4 4,-5 4,-4 4,-4 4,-4 5,-4 5,-3 5,-3 5,-3 5,-3 5,-2 6,-3 6,-2 6,-1 6,-2 6,-1 6,-1 6,0 6,0 0,0 z"
   class="fil2"
   id="path3540"
   inkscape:connector-curvature="0"
   style="fill:#2b2a29;fill-rule:nonzero" />

  </g>

 </g>
  </g>
  <g
     style="fill-rule:evenodd"
     id="g3637"
     transform="matrix(0.00826915,0,0,0.00826915,33.357053,-55.561694)">
    <g
       id="Layer_x0020_1-52">
  <metadata
   id="CorelCorpID_0Corel-Layer-76" />

  <rect
   id="rect3610"
   height="1656"
   width="1408"
   y="36"
   x="36"
   class="fil0 str0"
   style="fill:none;stroke:#2b2a29;stroke-width:71.92739868" />

  <line
   id="line3612"
   y2="295"
   x2="988"
   y1="295"
   x1="212"
   class="fil0 str1"
   style="fill:none;stroke:#2b2a29;stroke-width:57.55220032" />

  <line
   id="line3614"
   y2="533"
   x2="1133"
   y1="533"
   x1="212"
   class="fil0 str1"
   style="fill:none;stroke:#2b2a29;stroke-width:57.55220032" />

  <line
   id="line3616"
   y2="802"
   x2="1019"
   y1="802"
   x1="202"
   class="fil0 str1"
   style="fill:none;stroke:#2b2a29;stroke-width:57.55220032" />

  <line
   id="line3618"
   y2="1030"
   x2="1144"
   y1="1030"
   x1="202"
   class="fil0 str1"
   style="fill:none;stroke:#2b2a29;stroke-width:57.55220032" />

  <line
   id="line3620"
   y2="1299"
   x2="988"
   y1="1299"
   x1="212"
   class="fil0 str1"
   style="fill:none;stroke:#2b2a29;stroke-width:57.55220032" />

  <circle
   id="circle3622"
   r="50"
   cy="1494"
   cx="318"
   class="fil1 str2"
   sodipodi:cx="318"
   sodipodi:cy="1494"
   sodipodi:rx="50"
   sodipodi:ry="50"
   style="fill:#2b2a29;stroke:#2b2a29;stroke-width:33.98410034"
   d="m 368,1494 c 0,27.6142 -22.38576,50 -50,50 -27.61424,0 -50,-22.3858 -50,-50 0,-27.6142 22.38576,-50 50,-50 27.61424,0 50,22.3858 50,50 z" />

  <circle
   id="circle3624"
   r="50"
   cy="1494"
   cx="626"
   class="fil1 str2"
   sodipodi:cx="626"
   sodipodi:cy="1494"
   sodipodi:rx="50"
   sodipodi:ry="50"
   style="fill:#2b2a29;stroke:#2b2a29;stroke-width:33.98410034"
   d="m 676,1494 c 0,27.6142 -22.38576,50 -50,50 -27.61424,0 -50,-22.3858 -50,-50 0,-27.6142 22.38576,-50 50,-50 27.61424,0 50,22.3858 50,50 z" />

  <rect
   id="rect3626"
   height="1396"
   width="173"
   transform="matrix(0.589438,0.412729,-0.395707,0.565129,1571.52,254.543)"
   class="fil1 str2"
   x="0"
   y="0"
   style="fill:#2b2a29;stroke:#2b2a29;stroke-width:33.98410034" />

  <rect
   id="rect3628"
   height="1396"
   width="173"
   transform="matrix(0.589438,0.412729,-0.0297811,0.0425318,1654.67,135.786)"
   class="fil1 str2"
   x="0"
   y="0"
   style="fill:#2b2a29;stroke:#2b2a29;stroke-width:33.98410034" />

  <polygon
   id="polygon3630"
   points="994,1189 1006,1045 1124,1128 "
   class="fil1"
   style="fill:#2b2a29" />

 </g>
  </g>
</svg>
