<?xml version="1.0" encoding="UTF-8" standalone="no"?>
<!-- Created with Inkscape (http://www.inkscape.org/) -->

<svg
   xmlns:dc="http://purl.org/dc/elements/1.1/"
   xmlns:cc="http://creativecommons.org/ns#"
   xmlns:rdf="http://www.w3.org/1999/02/22-rdf-syntax-ns#"
   xmlns:svg="http://www.w3.org/2000/svg"
   xmlns="http://www.w3.org/2000/svg"
   version="1.1"
   width="15"
   height="14"
   viewBox="0 0 15 14"
   id="svg2">
  <metadata
     id="metadata10">
    <rdf:RDF>
      <cc:Work
         rdf:about="">
        <dc:format>image/svg+xml</dc:format>
        <dc:type
           rdf:resource="http://purl.org/dc/dcmitype/StillImage" />
        <dc:title></dc:title>
      </cc:Work>
    </rdf:RDF>
  </metadata>
  <defs
     id="defs8">
 <style
   type="text/css"
   id="style3016" />

  
 <style
   type="text/css"
   id="style3078" />

  </defs>
  <path
     d="m 23.805085,11.355932 q 0,-0.414 -0.293,-0.707 -0.293,-0.293 -0.707,-0.293 -0.414,0 -0.707,0.293 -0.293,0.293 -0.293,0.707 0,0.414 0.293,0.707 0.293,0.293 0.707,0.293 0.414,0 0.707,-0.293 0.293,-0.293 0.293,-0.707 z m -3,-3.9999998 h 3 v -2 h -1.234 q -0.109,0.016 -0.172,0.07 l -1.523,1.523 q -0.055,0.094 -0.07,0.172 v 0.234 z m 10,3.9999998 q 0,-0.414 -0.293,-0.707 -0.293,-0.293 -0.707,-0.293 -0.414,0 -0.707,0.293 -0.293,0.293 -0.293,0.707 0,0.414 0.293,0.707 0.293,0.293 0.707,0.293 0.414,0 0.707,-0.293 0.293,-0.293 0.293,-0.707 z m 1,-5.2499998 v -1.5 q 0,-0.109 -0.07,-0.18 -0.07,-0.071 -0.18,-0.07 h -1.75 v -1.75 q 0,-0.109 -0.07,-0.18 -0.07,-0.071 -0.18,-0.07 h -1.5 q -0.109,0 -0.18,0.07 -0.071,0.07 -0.07,0.18 v 1.75 h -1.75 q -0.109,0 -0.18,0.07 -0.071,0.07 -0.07,0.18 v 1.5 q 0,0.109 0.07,0.18 0.07,0.071 0.18,0.07 h 1.75 v 1.75 q 0,0.109 0.07,0.18 0.07,0.071 0.18,0.07 h 1.5 q 0.109,0 0.18,-0.07 0.071,-0.07 0.07,-0.18 v -1.75 h 1.75 q 0.109,0 0.18,-0.07 0.071,-0.07 0.07,-0.18 z m 2,-4.25 v 8.9999998 q 0,0.203 -0.148,0.352 -0.148,0.149 -0.352,0.148 h -1.5 q 0,0.828 -0.586,1.414 -0.586,0.586 -1.414,0.586 -0.828,0 -1.414,-0.586 -0.586,-0.586 -0.586,-1.414 h -3 q 0,0.828 -0.586,1.414 -0.586,0.586 -1.414,0.586 -0.828,0 -1.414,-0.586 -0.586,-0.586 -0.586,-1.414 h -1 q -0.203,0 -0.352,-0.148 -0.149,-0.148 -0.148,-0.352 0.001,-0.204 0.148,-0.352 0.147,-0.148 0.352,-0.148 V 7.1059322 q 0,-0.203 0.102,-0.453 0.102,-0.25 0.25,-0.398 l 1.547,-1.547 q 0.148,-0.148 0.398,-0.25 0.25,-0.102 0.453,-0.102 h 1.25 v -2.5 q 0,-0.203 0.148,-0.352 0.148,-0.149 0.352,-0.148 h 9 q 0.203,0 0.352,0.148 0.149,0.148 0.148,0.352 z"
     id="path4"
     style="fill:#444444" />
  <g
     transform="matrix(0.14939072,0,0,0.14939072,-23.054686,-0.89266485)"
     id="g3038"
     style="fill-rule:evenodd">
    <g
       id="Layer_x0020_1">
  <metadata
   id="CorelCorpID_0Corel-Layer" />

  <g
   id="_735520576">
   <g
   id="g3021">
    <polygon
   points="47,25 44,29 42,33 41,38 42,42 43,47 46,54 48,58 49,59 49,61 49,63 49,64 49,67 47,69 45,72 44,75 44,79 44,82 45,84 46,86 46,90 46,94 62,94 63,88 63,80 64,74 66,67 67,62 67,57 67,51 67,43 67,39 66,36 65,34 63,31 60,29 58,27 56,26 56,25 57,24 57,22 58,21 63,21 64,19 64,17 64,15 65,15 65,13 64,12 64,11 64,10 64,9 64,7 64,4 63,3 61,2 60,1 58,0 55,0 50,1 47,3 45,8 46,13 49,17 48,21 "
   id="polygon3023"
   style="fill:#2b2a29" />

    <path
   d="m 49,27 c 0,1 -4,5 -4,10 0,1 0,4 0,6 0,1 0,2 1,2 0,1 0,2 1,3 0,0 2,4 2,4 0,0 1,2 2,4 1,2 1,4 1,4 1,1 0,6 -1,7 0,0 -1,2 -1,3 0,0 -1,1 -1,1"
   id="path3025"
   style="fill:none;stroke:#fefefe;stroke-width:2.09966993" />

   </g>

   <g
   id="g3027">
    <circle
   cx="26"
   cy="52"
   r="12"
   id="circle3029"
   style="fill:none;stroke:#2b2a29;stroke-width:3.15013003" />

    <rect
   width="14.7014"
   height="52.501701"
   x="0"
   y="0"
   transform="matrix(0.160241,0.177963,-0.194168,0.174827,11.9452,61.8229)"
   id="rect3031"
   style="fill:#2b2a29;stroke:#2b2a29;stroke-width:2.4804101" />

   </g>

  </g>

 </g>
  </g>
  <g
     transform="matrix(0.16317535,0,0,0.16317535,0.54381819,-0.01873895)"
     id="g3100"
     style="fill-rule:evenodd">
    <g
       id="Layer_x0020_1-1">
  <metadata
   id="CorelCorpID_0Corel-Layer-7" />

  <g
   id="_742870944">
   <circle
   cx="70"
   cy="7"
   r="7"
   id="circle3083"
   style="fill:#2b2a29" />

   <rect
   width="11.7306"
   height="33.240299"
   x="65"
   y="15"
   id="rect3085"
   style="fill:#2b2a29" />

   <rect
   width="6.8427401"
   height="39.666199"
   x="67"
   y="46"
   id="rect3087"
   style="fill:#2b2a29" />

   <g
   id="g3089">
    <rect
   width="34.217201"
   height="23.463499"
   rx="4"
   ry="4"
   x="0"
   y="27"
   id="rect3091"
   style="fill:#2b2a29" />

    <polygon
   points="49,47 38,42 38,35 49,30 "
   id="polygon3093"
   style="fill:#2b2a29" />

   </g>

  </g>

 </g>
  </g>
</svg>
