<?xml version="1.0" encoding="UTF-8" standalone="no"?>
<!-- Created with Inkscape (http://www.inkscape.org/) -->

<svg
   xmlns:dc="http://purl.org/dc/elements/1.1/"
   xmlns:cc="http://creativecommons.org/ns#"
   xmlns:rdf="http://www.w3.org/1999/02/22-rdf-syntax-ns#"
   xmlns:svg="http://www.w3.org/2000/svg"
   xmlns="http://www.w3.org/2000/svg"
   version="1.1"
   width="15"
   height="14"
   viewBox="0 0 15 14"
   id="svg2">
  <metadata
     id="metadata10">
    <rdf:RDF>
      <cc:Work
         rdf:about="">
        <dc:format>image/svg+xml</dc:format>
        <dc:type
           rdf:resource="http://purl.org/dc/dcmitype/StillImage" />
        <dc:title></dc:title>
      </cc:Work>
    </rdf:RDF>
  </metadata>
  <defs
     id="defs8">
 <style
   type="text/css"
   id="style3016" />

  
 <style
   type="text/css"
   id="style3078" />

  
 <style
   type="text/css"
   id="style3140" />

  
 <style
   type="text/css"
   id="style3196" />

  
 <style
   type="text/css"
   id="style3261" />

  
 <style
   type="text/css"
   id="style3345" />

  
 <style
   type="text/css"
   id="style3417" />

  
 <style
   type="text/css"
   id="style3505" />

  
 <style
   type="text/css"
   id="style3606" />

  </defs>
  <path
     d="m 23.805085,11.355932 q 0,-0.414 -0.293,-0.707 -0.293,-0.293 -0.707,-0.293 -0.414,0 -0.707,0.293 -0.293,0.293 -0.293,0.707 0,0.414 0.293,0.707 0.293,0.293 0.707,0.293 0.414,0 0.707,-0.293 0.293,-0.293 0.293,-0.707 z m -3,-3.9999998 h 3 v -2 h -1.234 q -0.109,0.016 -0.172,0.07 l -1.523,1.523 q -0.055,0.094 -0.07,0.172 v 0.234 z m 10,3.9999998 q 0,-0.414 -0.293,-0.707 -0.293,-0.293 -0.707,-0.293 -0.414,0 -0.707,0.293 -0.293,0.293 -0.293,0.707 0,0.414 0.293,0.707 0.293,0.293 0.707,0.293 0.414,0 0.707,-0.293 0.293,-0.293 0.293,-0.707 z m 1,-5.2499998 v -1.5 q 0,-0.109 -0.07,-0.18 -0.07,-0.071 -0.18,-0.07 h -1.75 v -1.75 q 0,-0.109 -0.07,-0.18 -0.07,-0.071 -0.18,-0.07 h -1.5 q -0.109,0 -0.18,0.07 -0.071,0.07 -0.07,0.18 v 1.75 h -1.75 q -0.109,0 -0.18,0.07 -0.071,0.07 -0.07,0.18 v 1.5 q 0,0.109 0.07,0.18 0.07,0.071 0.18,0.07 h 1.75 v 1.75 q 0,0.109 0.07,0.18 0.07,0.071 0.18,0.07 h 1.5 q 0.109,0 0.18,-0.07 0.071,-0.07 0.07,-0.18 v -1.75 h 1.75 q 0.109,0 0.18,-0.07 0.071,-0.07 0.07,-0.18 z m 2,-4.25 v 8.9999998 q 0,0.203 -0.148,0.352 -0.148,0.149 -0.352,0.148 h -1.5 q 0,0.828 -0.586,1.414 -0.586,0.586 -1.414,0.586 -0.828,0 -1.414,-0.586 -0.586,-0.586 -0.586,-1.414 h -3 q 0,0.828 -0.586,1.414 -0.586,0.586 -1.414,0.586 -0.828,0 -1.414,-0.586 -0.586,-0.586 -0.586,-1.414 h -1 q -0.203,0 -0.352,-0.148 -0.149,-0.148 -0.148,-0.352 0.001,-0.204 0.148,-0.352 0.147,-0.148 0.352,-0.148 V 7.1059322 q 0,-0.203 0.102,-0.453 0.102,-0.25 0.25,-0.398 l 1.547,-1.547 q 0.148,-0.148 0.398,-0.25 0.25,-0.102 0.453,-0.102 h 1.25 v -2.5 q 0,-0.203 0.148,-0.352 0.148,-0.149 0.352,-0.148 h 9 q 0.203,0 0.352,0.148 0.149,0.148 0.148,0.352 z"
     id="path4"
     style="fill:#444444" />
  <g
     transform="matrix(0.14939072,0,0,0.14939072,-23.054686,-0.89266485)"
     id="g3038"
     style="fill-rule:evenodd">
    <g
       id="Layer_x0020_1">
  <metadata
   id="CorelCorpID_0Corel-Layer" />

  <g
   id="_735520576">
   <g
   id="g3021">
    <polygon
   points="47,25 44,29 42,33 41,38 42,42 43,47 46,54 48,58 49,59 49,61 49,63 49,64 49,67 47,69 45,72 44,75 44,79 44,82 45,84 46,86 46,90 46,94 62,94 63,88 63,80 64,74 66,67 67,62 67,57 67,51 67,43 67,39 66,36 65,34 63,31 60,29 58,27 56,26 56,25 57,24 57,22 58,21 63,21 64,19 64,17 64,15 65,15 65,13 64,12 64,11 64,10 64,9 64,7 64,4 63,3 61,2 60,1 58,0 55,0 50,1 47,3 45,8 46,13 49,17 48,21 "
   id="polygon3023"
   style="fill:#2b2a29" />

    <path
   d="m 49,27 c 0,1 -4,5 -4,10 0,1 0,4 0,6 0,1 0,2 1,2 0,1 0,2 1,3 0,0 2,4 2,4 0,0 1,2 2,4 1,2 1,4 1,4 1,1 0,6 -1,7 0,0 -1,2 -1,3 0,0 -1,1 -1,1"
   id="path3025"
   style="fill:none;stroke:#fefefe;stroke-width:2.09966993" />

   </g>

   <g
   id="g3027">
    <circle
   cx="26"
   cy="52"
   r="12"
   id="circle3029"
   style="fill:none;stroke:#2b2a29;stroke-width:3.15013003" />

    <rect
   width="14.7014"
   height="52.501701"
   x="0"
   y="0"
   transform="matrix(0.160241,0.177963,-0.194168,0.174827,11.9452,61.8229)"
   id="rect3031"
   style="fill:#2b2a29;stroke:#2b2a29;stroke-width:2.4804101" />

   </g>

  </g>

 </g>
  </g>
  <g
     transform="matrix(0.16317535,0,0,0.16317535,44.771138,0.76744059)"
     id="g3100"
     style="fill-rule:evenodd">
    <g
       id="Layer_x0020_1-1">
  <metadata
   id="CorelCorpID_0Corel-Layer-7" />

  <g
   id="_742870944">
   <circle
   cx="70"
   cy="7"
   r="7"
   id="circle3083"
   style="fill:#2b2a29" />

   <rect
   width="11.7306"
   height="33.240299"
   x="65"
   y="15"
   id="rect3085"
   style="fill:#2b2a29" />

   <rect
   width="6.8427401"
   height="39.666199"
   x="67"
   y="46"
   id="rect3087"
   style="fill:#2b2a29" />

   <g
   id="g3089">
    <rect
   width="34.217201"
   height="23.463499"
   rx="4"
   ry="4"
   x="0"
   y="27"
   id="rect3091"
   style="fill:#2b2a29" />

    <polygon
   points="38,35 49,30 49,47 38,42 "
   id="polygon3093"
   style="fill:#2b2a29" />

   </g>

  </g>

 </g>
  </g>
  <g
     transform="matrix(0.04130748,0,0,0.04153519,-3.5535352,-0.06215925)"
     id="g3162"
     style="fill-rule:evenodd">
    <g
       id="Layer_x0020_1-4">
  <metadata
   id="CorelCorpID_0Corel-Layer-0" />

  <g
   id="_742871296">
   <g
   id="g3145">
    <circle
   cx="348"
   cy="28"
   r="28"
   id="circle3147"
   style="fill:#2b2a29" />

    <polygon
   points="325,212 376,270 382,310 384,335 388,342 394,348 404,348 408,336 406,263 349,188 363,125 367,125 386,149 424,180 436,180 440,172 430,160 394,133 382,109 368,73 361,64 337,64 268,115 252,180 258,190 268,190 280,133 312,109 313,121 276,259 237,328 244,342 256,344 264,336 308,267 "
   id="polygon3149"
   style="fill:#2b2a29" />

   </g>

   <g
   id="g3151">
    <rect
   width="137.94901"
   height="94.594902"
   rx="16"
   ry="16"
   x="0"
   y="109"
   id="rect3153"
   style="fill:#2b2a29" />

    <polygon
   points="152,171 152,141 197,122 197,191 "
   id="polygon3155"
   style="fill:#2b2a29" />

   </g>

  </g>

 </g>
  </g>
  <g
     transform="matrix(0.12254928,0,0,0.12254928,-23.753633,-15.597893)"
     id="g3212"
     style="fill-rule:evenodd">
    <g
       id="Layer_x0020_1-9">
  <metadata
   id="CorelCorpID_0Corel-Layer-4" />

  <g
   id="_742870592">
   <polyline
   id="polyline3201"
   points="41,3 74,31 56,46 94,49 69,67 102,95 "
   class="fil0 str0"
   style="fill:none;stroke:#008dd2;stroke-width:7.92781019" />

   <circle
   cx="73"
   cy="44"
   r="40"
   id="circle3203"
   style="fill:none;stroke:#2b2a29;stroke-width:7.92781019" />

   <rect
   width="22.200899"
   height="79.283699"
   x="0"
   y="0"
   transform="matrix(0.337896,0.375272,-0.409438,0.36866,35.1067,74.2792)"
   id="rect3205"
   style="fill:#2b2a29;stroke:#2b2a29;stroke-width:3.74571991" />

  </g>

 </g>
  </g>
  <g
     transform="matrix(0.03648801,0,0,0.03648801,84.27118,-40.925915)"
     id="g3295"
     style="fill-rule:evenodd">
    <g
       id="Layer_x0020_1-8">
  <metadata
   id="CorelCorpID_0Corel-Layer-8" />

  <g
   id="_742872352">
   <rect
   width="312"
   height="367"
   x="13"
   y="13"
   id="rect3266"
   style="fill:none;stroke:#2b2a29;stroke-width:26.16060066" />

   <line
   id="line3268"
   y2="70"
   x2="224"
   y1="70"
   x1="52"
   class="fil0 str1"
   style="fill:none;stroke:#2b2a29;stroke-width:20.93219948" />

   <line
   id="line3270"
   y2="123"
   x2="256"
   y1="123"
   x1="52"
   class="fil0 str1"
   style="fill:none;stroke:#2b2a29;stroke-width:20.93219948" />

   <line
   id="line3272"
   y2="183"
   x2="231"
   y1="183"
   x1="50"
   class="fil0 str1"
   style="fill:none;stroke:#2b2a29;stroke-width:20.93219948" />

   <line
   id="line3274"
   y2="233"
   x2="258"
   y1="233"
   x1="50"
   class="fil0 str1"
   style="fill:none;stroke:#2b2a29;stroke-width:20.93219948" />

   <line
   id="line3276"
   y2="293"
   x2="224"
   y1="293"
   x1="52"
   class="fil0 str1"
   style="fill:none;stroke:#2b2a29;stroke-width:20.93219948" />

   <circle
   cx="75"
   cy="336"
   r="14"
   id="circle3278"
   style="fill:#2b2a29;stroke:#2b2a29;stroke-width:12.36030006" />

   <circle
   cx="144"
   cy="336"
   r="14"
   id="circle3280"
   style="fill:#2b2a29;stroke:#2b2a29;stroke-width:12.36030006" />

   <g
   id="g3282">
    <rect
   width="62.790501"
   height="507.55899"
   x="0"
   y="0"
   transform="matrix(0.35863,0.251116,-0.240759,0.34384,352.885,61.4514)"
   id="rect3284"
   style="fill:#2b2a29;stroke:#2b2a29;stroke-width:12.36030006" />

    <rect
   width="62.790501"
   height="507.55899"
   x="0"
   y="0"
   transform="matrix(0.35863,0.251116,-0.0181196,0.0258775,371.287,35.1716)"
   id="rect3286"
   style="fill:#2b2a29;stroke:#2b2a29;stroke-width:12.36030006" />

    <polygon
   points="254,255 225,268 228,236 "
   id="polygon3288"
   style="fill:#2b2a29" />

   </g>

  </g>

 </g>
  </g>
  <g
     transform="matrix(0.00400424,0,0,0.00400424,-25.783291,-67.483207)"
     id="g3443"
     style="fill-rule:evenodd">
    <g
       id="Layer_x0020_1-5">
  <metadata
   id="CorelCorpID_0Corel-Layer-1" />

  <g
   id="_163747680">
   <circle
   cx="2172"
   cy="1260"
   r="1193"
   id="circle3422"
   style="fill:none;stroke:#2b2a29;stroke-width:134.90499878" />

   <rect
   width="378"
   height="1349"
   x="0"
   y="0"
   transform="matrix(0.598663,0.664883,-0.725416,0.653168,1023.69,2166.53)"
   id="rect3424"
   style="fill:#2b2a29;stroke:#2b2a29;stroke-width:63.73970032" />

   <g
   id="g3426">
    <circle
   cx="2133"
   cy="479"
   r="67"
   id="circle3428"
   style="fill:#2b2a29;stroke:#2b2a29;stroke-width:63.73970032" />

    <circle
   cx="2193"
   cy="896"
   r="67"
   id="circle3430"
   style="fill:#2b2a29;stroke:#2b2a29;stroke-width:63.73970032" />

    <circle
   cx="2133"
   cy="1314"
   r="67"
   id="circle3432"
   style="fill:#2b2a29;stroke:#2b2a29;stroke-width:63.73970032" />

    <circle
   cx="2074"
   cy="1731"
   r="67"
   id="circle3434"
   style="fill:#2b2a29;stroke:#2b2a29;stroke-width:63.73970032" />

    <circle
   cx="2133"
   cy="2148"
   r="67"
   id="circle3436"
   style="fill:#2b2a29;stroke:#2b2a29;stroke-width:63.73970032" />

   </g>

  </g>

 </g>
  </g>
  <g
     transform="matrix(0.00398172,0,0,0.00398172,113.49891,-4.7712946)"
     id="g3547"
     style="fill-rule:evenodd">
    <g
       id="Layer_x0020_1-7">
  <metadata
   id="CorelCorpID_0Corel-Layer-11" />

  <circle
   cx="2232"
   cy="1263"
   r="1208"
   id="circle3509"
   style="fill:none;stroke:#2b2a29;stroke-width:109.3010025" />

  <g
   id="g3511">
   <polygon
   points="1069,2181 77,3073 306,3328 1298,2435 "
   id="polygon3513"
   style="fill:#2b2a29" />

   <path
   d="m 1109,2144 229,254 -81,74 -229,-255 4,-77 77,4 z m -77,-4 41,-37 36,41 -77,-4 z m -991,893 991,-893 73,81 -991,893 -77,-4 4,-77 z m -4,77 -37,-41 41,-36 -4,77 z m 229,254 -229,-254 81,-73 229,254 -4,77 -77,-4 z m 77,4 -41,37 -36,-41 77,4 z m 991,-892 -991,892 -73,-81 991,-892 77,3 -4,78 z m 4,-78 37,41 -41,37 4,-78 z"
   id="1"
   style="fill:#2b2a29;fill-rule:nonzero" />

  </g>

  <g
   id="g3516">
   <path
   d="m 2192,403 c 38,0 69,31 69,69 0,38 -31,68 -69,68 -37,0 -68,-30 -68,-68 0,-38 31,-69 68,-69 z"
   id="path3518"
   style="fill:#2b2a29" />

   <path
   d="m 2315,472 -109,0 0,0 0,-1 0,-1 0,0 0,-1 0,-1 -1,0 0,-1 0,0 0,-1 0,-1 -1,0 0,-1 -1,-1 0,0 0,0 -1,-1 0,0 -1,-1 0,0 -1,-1 0,0 -1,0 -1,-1 0,0 -1,0 0,0 -1,0 -1,-1 0,0 -1,0 -1,0 -1,0 0,-109 7,0 6,0 6,1 6,1 6,2 6,1 6,2 6,3 5,2 5,3 5,3 5,3 5,3 5,4 4,4 4,4 4,4 4,4 4,5 3,5 4,5 3,5 2,5 3,6 2,6 2,5 2,6 1,6 1,6 1,6 0,7 0,6 0,0 z m -123,123 0,-110 0,0 1,0 1,0 1,0 0,0 1,0 1,0 0,0 1,-1 0,0 1,0 1,-1 0,0 1,0 0,-1 1,0 0,-1 1,0 0,-1 0,0 1,-1 0,0 1,-1 0,-1 0,0 0,-1 1,0 0,-1 0,-1 0,0 0,-1 0,0 0,-1 109,0 0,6 0,6 -1,6 -1,7 -1,5 -2,6 -2,6 -2,6 -3,5 -2,5 -3,6 -4,5 -3,4 -4,5 -4,5 -4,4 -4,4 -4,4 -5,3 -5,4 -5,3 -5,3 -5,2 -5,3 -6,2 -6,2 -6,2 -6,1 -6,1 -6,1 -6,1 -7,0 0,0 z m -122,-123 109,0 0,0 0,1 0,0 0,1 0,0 0,1 0,1 1,0 0,1 0,0 1,1 0,1 0,0 1,1 0,0 0,1 1,0 0,1 1,0 0,1 1,0 0,0 1,1 1,0 0,0 1,1 0,0 1,0 1,0 0,0 1,0 1,0 0,0 0,110 -6,0 -6,-1 -6,-1 -6,-1 -6,-1 -6,-2 -6,-2 -6,-2 -5,-3 -5,-2 -5,-3 -5,-3 -5,-4 -5,-3 -4,-4 -4,-4 -4,-4 -4,-5 -4,-5 -3,-4 -4,-5 -3,-6 -2,-5 -3,-5 -2,-6 -2,-6 -2,-6 -1,-5 -1,-7 -1,-6 0,-6 0,-6 0,0 z m 122,-123 0,109 0,0 0,0 -1,0 -1,0 0,0 -1,1 -1,0 0,0 -1,0 0,0 -1,1 -1,0 0,0 -1,1 0,0 -1,1 0,0 -1,1 0,0 0,0 -1,1 0,1 0,0 -1,1 0,1 0,0 -1,1 0,0 0,1 0,1 0,0 0,1 0,1 -109,0 0,-6 0,-7 1,-6 1,-6 1,-6 2,-6 2,-5 2,-6 3,-6 2,-5 3,-5 4,-5 3,-5 4,-5 4,-4 4,-4 4,-4 4,-4 5,-4 5,-3 5,-3 5,-3 5,-3 5,-2 6,-3 6,-2 6,-1 6,-2 6,-1 6,-1 6,0 6,0 0,0 z"
   id="path3520"
   style="fill:#2b2a29;fill-rule:nonzero" />

  </g>

  <g
   id="g3522">
   <path
   d="m 2253,826 c 38,0 68,31 68,68 0,38 -30,69 -68,69 -38,0 -69,-31 -69,-69 0,-37 31,-68 69,-68 z"
   id="path3524"
   style="fill:#2b2a29" />

   <path
   d="m 2376,894 -110,0 0,0 0,0 0,-1 0,-1 0,0 0,-1 0,-1 0,0 0,-1 -1,0 0,-1 -1,-1 0,0 0,-1 -1,0 0,-1 0,0 -1,-1 -1,0 0,-1 -1,0 0,0 -1,-1 0,0 -1,0 0,-1 -1,0 -1,0 -1,0 0,0 -1,0 0,0 -1,0 0,-110 6,0 6,1 6,1 7,1 6,1 5,2 6,2 6,2 5,2 5,3 6,3 5,3 4,4 5,4 5,3 4,4 4,4 4,5 3,5 4,5 3,5 3,5 3,5 2,5 2,6 2,6 2,6 1,5 1,7 1,6 1,6 0,6 0,0 z m -123,123 0,-109 0,0 1,0 0,0 1,0 0,0 1,-1 1,0 1,0 0,0 1,0 0,-1 1,0 0,0 1,-1 0,0 1,-1 1,0 0,-1 0,0 1,0 0,-1 1,-1 0,0 0,-1 1,-1 0,0 0,0 0,-1 0,-1 0,-1 0,0 0,-1 0,-1 110,0 0,7 -1,6 -1,6 -1,6 -1,6 -2,6 -2,5 -2,6 -2,6 -3,5 -3,5 -3,5 -4,5 -3,4 -4,5 -4,4 -4,4 -5,4 -5,4 -4,3 -5,3 -6,3 -5,3 -5,2 -6,3 -6,2 -5,1 -6,2 -7,1 -6,1 -6,0 -6,0 0,0 z m -123,-123 109,0 0,0 0,1 0,1 0,0 0,1 1,1 0,1 0,0 0,0 0,1 1,1 0,0 0,1 1,1 0,0 1,0 0,1 1,0 0,1 1,0 0,1 1,0 0,0 1,1 1,0 0,0 1,0 0,0 1,1 1,0 0,0 1,0 1,0 0,109 -6,0 -7,0 -6,-1 -6,-1 -6,-2 -6,-1 -5,-2 -6,-3 -6,-2 -5,-3 -5,-3 -5,-3 -5,-3 -5,-4 -4,-4 -4,-4 -4,-4 -4,-5 -4,-4 -3,-5 -3,-5 -3,-5 -3,-5 -2,-6 -3,-6 -2,-5 -1,-6 -2,-6 -1,-6 -1,-6 0,-6 0,-7 0,0 z m 123,-123 0,110 0,0 -1,0 -1,0 0,0 -1,0 -1,0 0,0 -1,0 0,1 -1,0 -1,0 0,1 -1,0 0,0 -1,1 0,0 -1,1 0,0 -1,1 0,0 -1,1 0,0 0,1 -1,1 0,0 0,1 0,0 0,1 -1,1 0,0 0,1 0,1 0,0 -109,0 0,-6 0,-6 1,-6 1,-7 2,-5 1,-6 2,-6 3,-6 2,-5 3,-5 3,-5 3,-5 3,-5 4,-5 4,-5 4,-4 4,-4 4,-3 5,-4 5,-4 5,-3 5,-3 5,-3 6,-2 6,-2 5,-2 6,-2 6,-1 6,-1 6,-1 7,-1 6,0 0,0 z"
   id="path3526"
   style="fill:#2b2a29;fill-rule:nonzero" />

  </g>

  <g
   id="g3528">
   <path
   d="m 2192,1248 c 38,0 69,31 69,69 0,38 -31,68 -69,68 -37,0 -68,-30 -68,-68 0,-38 31,-69 68,-69 z"
   id="path3530"
   style="fill:#2b2a29" />

   <path
   d="m 2315,1317 -109,0 0,0 0,-1 0,-1 0,0 0,-1 0,-1 -1,-1 0,0 0,0 0,-1 0,-1 -1,0 0,-1 -1,-1 0,0 0,0 -1,-1 0,0 -1,-1 0,0 -1,-1 0,0 -1,0 -1,-1 0,0 -1,0 0,0 -1,0 -1,-1 0,0 -1,0 -1,0 -1,0 0,-109 7,0 6,0 6,1 6,1 6,2 6,1 6,2 6,3 5,2 5,3 5,3 5,3 5,3 5,4 4,4 4,4 4,4 4,5 4,4 3,5 4,5 2,5 3,5 3,6 2,6 2,5 2,6 1,6 1,6 1,6 0,6 0,7 0,0 z m -123,123 0,-110 0,0 1,0 1,0 1,0 0,0 1,0 1,0 0,0 1,-1 0,0 1,0 1,-1 0,0 1,0 0,-1 1,0 0,-1 1,0 0,0 0,-1 1,-1 0,0 1,-1 0,-1 0,0 0,0 0,-1 1,-1 0,-1 0,0 0,-1 0,0 0,-1 109,0 0,6 0,6 -1,6 -1,7 -1,5 -2,6 -2,6 -2,6 -3,5 -3,6 -2,5 -4,5 -3,4 -4,5 -4,5 -4,4 -4,4 -4,3 -5,4 -5,4 -5,3 -5,3 -5,3 -5,2 -6,2 -6,2 -6,2 -6,1 -6,1 -6,1 -6,1 -7,0 0,0 z m -122,-123 109,0 0,0 0,1 0,0 0,1 0,0 0,1 0,1 1,1 0,0 0,0 0,1 1,1 0,0 1,1 0,1 0,0 1,0 0,1 1,0 0,1 1,0 0,0 1,1 1,0 0,0 1,1 0,0 1,0 1,0 0,0 1,0 1,0 0,0 0,110 -6,0 -6,-1 -6,-1 -6,-1 -6,-1 -6,-2 -6,-2 -6,-2 -5,-2 -5,-3 -5,-3 -5,-3 -5,-4 -5,-4 -4,-3 -4,-4 -4,-4 -4,-5 -4,-5 -3,-4 -4,-5 -3,-6 -2,-5 -3,-5 -2,-6 -2,-6 -2,-6 -1,-5 -1,-7 -1,-6 0,-6 0,-6 0,0 z m 122,-123 0,109 0,0 0,0 -1,0 -1,0 0,0 -1,1 -1,0 0,0 -1,0 0,0 -1,1 -1,0 0,0 -1,1 0,0 -1,1 0,0 -1,1 0,0 0,0 -1,1 0,1 -1,0 0,1 0,1 0,0 -1,0 0,1 0,1 0,1 0,0 0,1 0,1 -109,0 0,-7 0,-6 1,-6 1,-6 1,-6 2,-6 2,-5 2,-6 3,-6 2,-5 3,-5 4,-5 3,-5 4,-4 4,-5 4,-4 4,-4 4,-4 5,-4 5,-3 5,-3 5,-3 5,-3 5,-2 6,-3 6,-2 6,-1 6,-2 6,-1 6,-1 6,0 6,0 0,0 z"
   id="path3532"
   style="fill:#2b2a29;fill-rule:nonzero" />

  </g>

  <circle
   cx="2132"
   cy="1739"
   r="68"
   id="circle3534"
   style="fill:#2b2a29;stroke:#2b2a29;stroke-width:109.3010025" />

  <g
   id="g3536">
   <path
   d="m 2192,2093 c 38,0 69,31 69,69 0,37 -31,68 -69,68 -37,0 -68,-31 -68,-68 0,-38 31,-69 68,-69 z"
   id="path3538"
   style="fill:#2b2a29" />

   <path
   d="m 2315,2162 -109,0 0,0 0,-1 0,-1 0,0 0,-1 0,-1 -1,-1 0,0 0,0 0,-1 0,-1 -1,0 0,-1 -1,-1 0,0 0,0 -1,-1 0,0 -1,-1 0,0 -1,-1 0,0 -1,0 -1,-1 0,0 -1,0 0,0 -1,0 -1,-1 0,0 -1,0 -1,0 -1,0 0,-109 7,0 6,0 6,1 6,1 6,2 6,1 6,2 6,3 5,2 5,3 5,3 5,3 5,3 5,4 4,4 4,4 4,4 4,5 4,4 3,5 4,5 2,5 3,5 3,6 2,6 2,5 2,6 1,6 1,6 1,6 0,6 0,7 0,0 z m -123,123 0,-110 0,0 1,0 1,0 1,0 0,0 1,0 1,0 0,0 1,-1 0,0 1,0 1,-1 0,0 1,0 0,-1 1,0 0,-1 1,0 0,-1 0,0 1,-1 0,0 1,-1 0,-1 0,0 0,0 0,-1 1,-1 0,-1 0,0 0,-1 0,-1 0,0 109,0 0,6 0,6 -1,6 -1,7 -1,5 -2,6 -2,6 -2,6 -3,5 -3,6 -2,5 -4,4 -3,5 -4,5 -4,5 -4,4 -4,4 -4,3 -5,4 -5,4 -5,3 -5,3 -5,3 -5,2 -6,2 -6,2 -6,2 -6,1 -6,1 -6,1 -6,1 -7,0 0,0 z m -122,-123 109,0 0,0 0,0 0,1 0,1 0,0 0,1 0,1 1,1 0,0 0,0 0,1 1,1 0,0 1,1 0,0 0,1 1,0 0,1 1,0 0,1 1,0 0,0 1,1 1,0 0,0 1,1 0,0 1,0 1,0 0,0 1,0 1,0 0,0 0,110 -6,0 -6,-1 -6,-1 -6,-1 -6,-1 -6,-2 -6,-2 -6,-2 -5,-2 -5,-3 -5,-3 -5,-3 -5,-4 -5,-4 -4,-3 -4,-4 -4,-4 -4,-5 -4,-5 -3,-4 -4,-5 -3,-6 -2,-5 -3,-5 -2,-6 -2,-6 -2,-6 -1,-5 -1,-7 -1,-6 0,-6 0,-6 0,0 z m 122,-123 0,109 0,0 0,0 -1,0 -1,0 0,0 -1,1 -1,0 0,0 -1,0 0,0 -1,1 -1,0 0,0 -1,1 0,0 -1,1 0,0 -1,1 0,0 0,0 -1,1 0,1 -1,0 0,1 0,1 0,0 -1,0 0,1 0,1 0,1 0,0 0,1 0,1 -109,0 0,-7 0,-6 1,-6 1,-6 1,-6 2,-6 2,-5 2,-6 3,-6 2,-5 3,-5 4,-5 3,-5 4,-4 4,-5 4,-4 4,-4 4,-4 5,-4 5,-3 5,-3 5,-3 5,-3 5,-2 6,-3 6,-2 6,-1 6,-2 6,-1 6,-1 6,0 6,0 0,0 z"
   id="path3540"
   style="fill:#2b2a29;fill-rule:nonzero" />

  </g>

 </g>
  </g>
  <g
     transform="matrix(0.00826915,0,0,0.00826915,33.357053,-55.561694)"
     id="g3637"
     style="fill-rule:evenodd">
    <g
       id="Layer_x0020_1-52">
  <metadata
   id="CorelCorpID_0Corel-Layer-76" />

  <rect
   width="1408"
   height="1656"
   x="36"
   y="36"
   id="rect3610"
   style="fill:none;stroke:#2b2a29;stroke-width:71.92739868" />

  <line
   id="line3612"
   y2="295"
   x2="988"
   y1="295"
   x1="212"
   class="fil0 str1"
   style="fill:none;stroke:#2b2a29;stroke-width:57.55220032" />

  <line
   id="line3614"
   y2="533"
   x2="1133"
   y1="533"
   x1="212"
   class="fil0 str1"
   style="fill:none;stroke:#2b2a29;stroke-width:57.55220032" />

  <line
   id="line3616"
   y2="802"
   x2="1019"
   y1="802"
   x1="202"
   class="fil0 str1"
   style="fill:none;stroke:#2b2a29;stroke-width:57.55220032" />

  <line
   id="line3618"
   y2="1030"
   x2="1144"
   y1="1030"
   x1="202"
   class="fil0 str1"
   style="fill:none;stroke:#2b2a29;stroke-width:57.55220032" />

  <line
   id="line3620"
   y2="1299"
   x2="988"
   y1="1299"
   x1="212"
   class="fil0 str1"
   style="fill:none;stroke:#2b2a29;stroke-width:57.55220032" />

  <circle
   cx="318"
   cy="1494"
   r="50"
   id="circle3622"
   style="fill:#2b2a29;stroke:#2b2a29;stroke-width:33.98410034" />

  <circle
   cx="626"
   cy="1494"
   r="50"
   id="circle3624"
   style="fill:#2b2a29;stroke:#2b2a29;stroke-width:33.98410034" />

  <rect
   width="173"
   height="1396"
   x="0"
   y="0"
   transform="matrix(0.589438,0.412729,-0.395707,0.565129,1571.52,254.543)"
   id="rect3626"
   style="fill:#2b2a29;stroke:#2b2a29;stroke-width:33.98410034" />

  <rect
   width="173"
   height="1396"
   x="0"
   y="0"
   transform="matrix(0.589438,0.412729,-0.0297811,0.0425318,1654.67,135.786)"
   id="rect3628"
   style="fill:#2b2a29;stroke:#2b2a29;stroke-width:33.98410034" />

  <polygon
   points="1006,1045 1124,1128 994,1189 "
   id="polygon3630"
   style="fill:#2b2a29" />

 </g>
  </g>
</svg>
