<svg xmlns="http://www.w3.org/2000/svg" width="15" height="14" viewBox="0 0 15 14" id="svg2"><defs id="defs8"><style id="style3016"/></defs><path d="M23.805 11.356q0-.414-.293-.707-.293-.294-.707-.294t-.707.293q-.293.292-.293.706t.293.707q.293.293.707.293t.707-.293q.293-.293.293-.707zm-3-4h3v-2H22.57q-.108.016-.17.07L20.875 6.95q-.055.093-.07.17v.235zm10 4q0-.414-.293-.707-.293-.294-.707-.294t-.707.293q-.293.292-.293.706t.293.707q.293.293.707.293t.707-.293q.293-.293.293-.707zm1-5.25v-1.5q0-.11-.07-.18-.07-.07-.18-.07h-1.75v-1.75q0-.11-.07-.18-.07-.07-.18-.07h-1.5q-.11 0-.18.07-.07.07-.07.18v1.75h-1.75q-.11 0-.18.07-.07.07-.07.18v1.5q0 .11.07.18.07.07.18.07h1.75v1.75q0 .11.07.18.07.07.18.07h1.5q.11 0 .18-.07.07-.07.07-.18v-1.75h1.75q.11 0 .18-.07.07-.07.07-.18zm2-4.25v9q0 .203-.148.352-.148.15-.352.148h-1.5q0 .828-.586 1.414-.587.586-1.415.586-.828 0-1.414-.586-.585-.586-.585-1.414h-3q0 .828-.586 1.414-.587.586-1.415.586-.828 0-1.414-.586-.585-.586-.585-1.414h-1q-.203 0-.352-.148-.15-.148-.148-.352 0-.204.148-.352.147-.148.352-.148v-3.25q0-.203.102-.453t.25-.398l1.547-1.547q.148-.148.398-.25.25-.102.453-.102h1.25v-2.5q0-.203.148-.352.148-.15.352-.148h9q.203 0 .352.148.15.148.148.352z" id="path4" fill="#444"/><g id="g3038" fill-rule="evenodd"><g id="Layer_x0020_1"><g id="_735520576"><g id="g3021"><path id="polygon3023" fill="#2b2a29" d="M9.743 3.016l-.15.597-.447.598-.3.598-.15.747.15.598.15.747.448 1.046.3.597.15.15V9.89l-.3.298-.3.45-.148.447v1.047l.15.297.148.3v1.194h2.39l.15-.895V11.83l.15-.897.298-1.045.15-.747V5.706l-.15-.448-.15-.3-.298-.447-.448-.3-.3-.298-.298-.15v-.15l.15-.148v-.3l.15-.148h.746l.15-.3V2.12h.15v-.297l-.15-.15V.477l-.15-.15-.3-.15-.148-.148-.3-.15h-.447l-.748.15-.448.3-.3.746.15.747.45.598z"/><path d="M9.893 3.912c0 .15-.598.747-.598 1.494v.896c0 .15 0 .3.15.3 0 .148 0 .298.15.447l.298.597.298.597c.15.3.15.598.15.598.15.15 0 .896-.15 1.046 0 0-.148.298-.148.448l-.15.15" id="path3025" fill="none" stroke="#fefefe" stroke-width=".313719"/></g><g id="g3027" stroke="#2b2a29" transform="translate(2.572 -.12) scale(.1494)"><circle cx="26" cy="52" r="12" id="circle3029" fill="none" stroke-width="3.15"/><path transform="matrix(.16024 .17796 -.19417 .17483 11.945 61.823)" id="rect3031" fill="#2b2a29" stroke-width="2.48" d="M0 0h14.7v52.502H0z"/></g></g></g></g></svg>