<svg xmlns="http://www.w3.org/2000/svg" width="5.439mm" height="7.59mm" viewBox="0 0 67 94" shape-rendering="geometricPrecision" text-rendering="geometricPrecision" image-rendering="optimizeQuality" fill-rule="evenodd" clip-rule="evenodd"><defs><style><![CDATA[
    .str0 {stroke:#FEFEFE;stroke-width:2.09967}
    .str2 {stroke:#2B2A29;stroke-width:2.48041}
    .str1 {stroke:#2B2A29;stroke-width:3.15013}
    .fil1 {fill:none}
    .fil0 {fill:#2B2A29}
   ]]></style></defs><g id="Layer_x0020_1"><g id="_735520576"><path class="fil0" d="M58 0h-3l-5 1-3 2-2 5 1 5 3 4-1 4-1 4-3 4-2 4-1 5 1 4 1 5 3 7 2 4 1 1v8l-2 2-2 3-1 3v7l1 2 1 2v8h16l1-6v-8l1-6 2-7 1-5V39l-1-3-1-2-2-3-3-2-2-2-2-1v-1l1-1v-2l1-1h5l1-2v-4h1v-2l-1-1V4l-1-1-2-1-1-1z"/><path class="fil1 str0" d="M49 27c0 1-4 5-4 10v6c0 1 0 2 1 2 0 1 0 2 1 3l2 4 2 4c1 2 1 4 1 4 1 1 0 6-1 7 0 0-1 2-1 3l-1 1"/><g><circle class="fil1 str1" cx="26" cy="52" r="12"/><path class="fil0 str2" d="M11.945 61.823L14.3 64.44 4.108 73.617 1.75 71.002z"/></g></g></g></svg>