<svg xmlns="http://www.w3.org/2000/svg" width="15" height="14" viewBox="0 0 15 14" id="svg2"><defs id="defs8"><style id="style3016">.str0 {stroke:#FEFEFE;stroke-width:2.09967} .str2 {stroke:#2B2A29;stroke-width:2.48041} .str1 {stroke:#2B2A29;stroke-width:3.15013} .fil1 {fill:none} .fil0 {fill:#2B2A29}</style><style id="style3078">.fil0 {fill:#2B2A29}</style><style id="style3140">.fil0 {fill:#2B2A29}</style><style id="style3196">.str2 {stroke:#2B2A29;stroke-width:3.74572} .str1 {stroke:#2B2A29;stroke-width:7.92781} .str0 {stroke:#008DD2;stroke-width:7.92781} .fil0 {fill:none} .fil1 {fill:#2B2A29}</style><style id="style3261">.str2 {stroke:#2B2A29;stroke-width:12.3603} .str1 {stroke:#2B2A29;stroke-width:20.9322} .str0 {stroke:#2B2A29;stroke-width:26.1606} .fil0 {fill:none} .fil1 {fill:#2B2A29}</style><style id="style3345">.str1 {stroke:#2B2A29;stroke-width:0.637397} .str0 {stroke:#2B2A29;stroke-width:1.34905} .fil0 {fill:none} .fil1 {fill:#2B2A29}</style><style id="style3417">.str1 {stroke:#2B2A29;stroke-width:63.7397} .str0 {stroke:#2B2A29;stroke-width:134.905} .fil0 {fill:none} .fil1 {fill:#2B2A29}</style><style id="style3505">.str0 {stroke:#2B2A29;stroke-width:109.301} .fil0 {fill:none} .fil1 {fill:#2B2A29} .fil2 {fill:#2B2A29;fill-rule:nonzero}</style><style id="style3606">.str2 {stroke:#2B2A29;stroke-width:33.9841} .str1 {stroke:#2B2A29;stroke-width:57.5522} .str0 {stroke:#2B2A29;stroke-width:71.9274} .fil0 {fill:none} .fil1 {fill:#2B2A29}</style></defs><path d="M23.805 11.356q0-.414-.293-.707-.293-.294-.707-.294t-.707.293q-.293.292-.293.706t.293.707q.293.293.707.293t.707-.293q.293-.293.293-.707zm-3-4h3v-2H22.57q-.108.016-.17.07L20.875 6.95q-.055.093-.07.17v.235zm10 4q0-.414-.293-.707-.293-.294-.707-.294t-.707.293q-.293.292-.293.706t.293.707q.293.293.707.293t.707-.293q.293-.293.293-.707zm1-5.25v-1.5q0-.11-.07-.18-.07-.07-.18-.07h-1.75v-1.75q0-.11-.07-.18-.07-.07-.18-.07h-1.5q-.11 0-.18.07-.07.07-.07.18v1.75h-1.75q-.11 0-.18.07-.07.07-.07.18v1.5q0 .11.07.18.07.07.18.07h1.75v1.75q0 .11.07.18.07.07.18.07h1.5q.11 0 .18-.07.07-.07.07-.18v-1.75h1.75q.11 0 .18-.07.07-.07.07-.18zm2-4.25v9q0 .203-.148.352-.148.15-.352.148h-1.5q0 .828-.586 1.414-.587.586-1.415.586-.828 0-1.414-.586-.585-.586-.585-1.414h-3q0 .828-.586 1.414-.587.586-1.415.586-.828 0-1.414-.586-.585-.586-.585-1.414h-1q-.203 0-.352-.148-.15-.148-.148-.352 0-.204.148-.352.147-.148.352-.148v-3.25q0-.203.102-.453t.25-.398l1.547-1.547q.148-.148.398-.25.25-.102.453-.102h1.25v-2.5q0-.203.148-.352.148-.15.352-.148h9q.203 0 .352.148.15.148.148.352z" id="path4" fill="#444"/><g id="g3038" fill-rule="evenodd"><g id="Layer_x0020_1"><g id="_735520576"><g id="g3021"><path id="polygon3023" class="fil0" fill="#2b2a29" d="M-15.884 2.245l-.15.597-.447.598-.3.597-.15.747.15.598.15.747.447 1.044.3.598.148.15v1.196l-.298.297-.3.448-.148.45v1.043l.148.3.15.298V13.15h2.39l.15-.896V11.06l.148-.898.3-1.045.148-.747V4.935l-.15-.45-.148-.297-.3-.45-.447-.297-.3-.3-.3-.15v-.148l.15-.15v-.298l.15-.15h.747l.15-.298v-.598h.15v-.3l-.15-.148V-.295l-.15-.15-.3-.15-.148-.148-.3-.15h-.448l-.747.15-.448.3-.3.745.15.747.448.597z"/><path id="path3025" d="M-15.735 3.14c0 .15-.597.748-.597 1.495v.896c0 .15 0 .3.15.3 0 .15 0 .3.15.448l.297.598.3.597c.15.3.15.598.15.598.148.15 0 .897-.15 1.047 0 0-.15.298-.15.448l-.15.15" class="fil1 str0" fill="none" stroke="#fefefe" stroke-width=".313719"/></g><g id="g3027" stroke="#2b2a29" transform="translate(-23.055 -.893) scale(.1494)"><circle id="circle3029" r="12" cy="52" cx="26" class="fil1 str1" fill="none" stroke-width="3.15"/><path id="rect3031" transform="matrix(.16024 .17796 -.19417 .17483 11.945 61.823)" class="fil0 str2" fill="#2b2a29" stroke-width="2.48" d="M0 0h14.7v52.502H0z"/></g></g></g></g><g id="g3100" fill-rule="evenodd"><g id="Layer_x0020_1-1"><g id="_742870944" fill="#2b2a29" transform="matrix(.16318 0 0 .16318 44.77 .767)"><circle id="circle3083" r="7" cy="7" cx="70" class="fil0"/><path id="rect3085" class="fil0" d="M65 15h11.73v33.24H65z"/><path id="rect3087" class="fil0" d="M67 46h6.843v39.666H67z"/><g id="g3089"><rect id="rect3091" ry="4" rx="4" height="23.463" width="34.217" y="27" class="fil0"/><path id="polygon3093" class="fil0" d="M38 42v-7l11-5v17z"/></g></g></g></g><g id="g3162" fill-rule="evenodd"><g id="Layer_x0020_1-4"><g id="_742871296" fill="#2b2a29"><g id="g3145" transform="translate(41.078 -15.755) scale(.0413)"><circle id="circle3147" r="28" cy="28" cx="348" class="fil0"/><path id="polygon3149" class="fil0" d="M312 109l1 12-37 138-39 69 7 14 12 2 8-8 44-69 17-55 51 58 6 40 2 25 4 7 6 6h10l4-12-2-73-57-75 14-63h4l19 24 38 31h12l4-8-10-12-36-27-12-24-14-36-7-9h-24l-69 51-16 65 6 10h10l12-57z"/></g><g id="g3151" transform="translate(41.078 -15.755) scale(.0413)"><rect id="rect3153" ry="16" rx="16" height="94.595" width="137.949" y="109" class="fil0"/><path id="polygon3155" class="fil0" d="M152 171v-30l45-19v69z"/></g></g></g></g><g id="g3212" fill-rule="evenodd"><g id="Layer_x0020_1-9"><g id="_742870592" transform="matrix(.1225 0 0 .1225 -23.754 -15.598)"><path id="polyline3201" class="fil0 str0" fill="none" stroke="#008dd2" stroke-width="7.928" d="M41 3l33 28-18 15 38 3-25 18 33 28"/><circle id="circle3203" r="40" cy="44" cx="73" class="fil0 str1" fill="none" stroke="#2b2a29" stroke-width="7.928"/><path id="rect3205" transform="matrix(.338 .3753 -.4094 .3687 35.107 74.28)" class="fil1 str2" fill="#2b2a29" stroke="#2b2a29" stroke-width="3.746" d="M0 0h22.2v79.284H0z"/></g></g></g><g id="g3295" fill-rule="evenodd"><g id="Layer_x0020_1-8"><g id="_742872352" transform="matrix(.0365 0 0 .0365 84.27 -40.926)"><path id="rect3266" class="fil0 str0" fill="none" stroke="#2b2a29" stroke-width="26.161" d="M13 13h312v367H13z"/><path id="line3268" class="fil0 str1" fill="none" stroke="#2b2a29" stroke-width="20.932" d="M52 70h172"/><path id="line3270" class="fil0 str1" fill="none" stroke="#2b2a29" stroke-width="20.932" d="M52 123h204"/><path id="line3272" class="fil0 str1" fill="none" stroke="#2b2a29" stroke-width="20.932" d="M50 183h181"/><path id="line3274" class="fil0 str1" fill="none" stroke="#2b2a29" stroke-width="20.932" d="M50 233h208"/><path id="line3276" class="fil0 str1" fill="none" stroke="#2b2a29" stroke-width="20.932" d="M52 293h172"/><circle id="circle3278" r="14" cy="336" cx="75" class="fil1 str2" fill="#2b2a29" stroke="#2b2a29" stroke-width="12.36"/><circle id="circle3280" r="14" cy="336" cx="144" class="fil1 str2" fill="#2b2a29" stroke="#2b2a29" stroke-width="12.36"/><g id="g3282" fill="#2b2a29"><path id="rect3284" transform="matrix(.3586 .251 -.2408 .3438 352.885 61.45)" class="fil1 str2" stroke="#2b2a29" stroke-width="12.36" d="M0 0h62.79v507.56H0z"/><path id="rect3286" transform="matrix(.3586 .251 -.018 .026 371.287 35.172)" class="fil1 str2" stroke="#2b2a29" stroke-width="12.36" d="M0 0h62.79v507.56H0z"/><path id="polygon3288" class="fil1" d="M228 236l26 19-29 13z"/></g></g></g></g><g id="g3443" fill-rule="evenodd"><g id="Layer_x0020_1-5"><g id="_163747680" stroke="#2b2a29" transform="matrix(.004 0 0 .004 .56 .47)"><circle id="circle3422" r="1193" cy="1260" cx="2172" class="fil0 str0" fill="none" stroke-width="134.905"/><path id="rect3424" transform="matrix(.5987 .665 -.7254 .6532 1023.69 2166.53)" class="fil1 str1" fill="#2b2a29" stroke-width="63.74" d="M0 0h378v1349H0z"/><g id="g3426" fill="#2b2a29" stroke-width="63.74"><circle id="circle3428" r="67" cy="479" cx="2133" class="fil1 str1"/><circle id="circle3430" r="67" cy="896" cx="2193" class="fil1 str1"/><circle id="circle3432" r="67" cy="1314" cx="2133" class="fil1 str1"/><circle id="circle3434" r="67" cy="1731" cx="2074" class="fil1 str1"/><circle id="circle3436" r="67" cy="2148" cx="2133" class="fil1 str1"/></g></g></g></g><g id="g3547" fill-rule="evenodd"><g id="Layer_x0020_1-7" transform="matrix(.004 0 0 .004 113.5 -4.77)"><circle id="circle3509" r="1208" cy="1263" cx="2232" class="fil0 str0" fill="none" stroke="#2b2a29" stroke-width="109.301"/><g id="g3511" fill="#2b2a29"><path id="polygon3513" class="fil1" d="M1298 2435l-229-254-992 892 229 255z"/><path d="M1109 2144l229 254-81 74-229-255 4-77 77 4zm-77-4l41-37 36 41-77-4zM41 3033l991-893 73 81-991 893-77-4 4-77zm-4 77l-37-41 41-36-4 77zm229 254L37 3110l81-73 229 254-4 77-77-4zm77 4l-41 37-36-41 77 4zm991-892l-991 892-73-81 991-892 77 3-4 78zm4-78l37 41-41 37 4-78z" class="fil2" id="1" fill-rule="nonzero"/></g><g id="g3516" fill="#2b2a29"><path id="path3518" d="M2192 403c38 0 69 31 69 69s-31 68-69 68c-37 0-68-30-68-68s31-69 68-69z" class="fil1"/><path d="M2315 472h-109v-4h-1v-3h-1v-1l-1-1-1-1-1-1-1-1h-1l-1-1h-2l-1-1h-3V349h13l6 1 6 1 6 2 6 1 6 2 6 3 5 2 5 3 5 3 5 3 5 3 5 4 4 4 4 4 4 4 4 4 4 5 3 5 4 5 3 5 2 5 3 6 2 6 2 5 2 6 1 6 1 6 1 6v13zm-123 123V485h5l1-1h1l1-1h1v-1h1v-1h1v-1l1-1 1-1v-2h1v-4h109v12l-1 6-1 7-1 5-2 6-2 6-2 6-3 5-2 5-3 6-4 5-3 4-4 5-4 5-4 4-4 4-4 4-5 3-5 4-5 3-5 3-5 2-5 3-6 2-6 2-6 2-6 1-6 1-6 1-6 1h-7zm-122-123h109v4h1v1l1 1v1l1 1v1h1v1h1v1h1l1 1h1l1 1h4v110h-6l-6-1-6-1-6-1-6-1-6-2-6-2-6-2-5-3-5-2-5-3-5-3-5-4-5-3-4-4-4-4-4-4-4-5-4-5-3-4-4-5-3-6-2-5-3-5-2-6-2-6-2-6-1-5-1-7-1-6v-12zm122-123v109h-2l-1 1h-2l-1 1h-1l-1 1-1 1-1 1-1 1v1l-1 1v1l-1 1v4h-109v-13l1-6 1-6 1-6 2-6 2-5 2-6 3-6 2-5 3-5 4-5 3-5 4-5 4-4 4-4 4-4 4-4 5-4 5-3 5-3 5-3 5-3 5-2 6-3 6-2 6-1 6-2 6-1 6-1h12z" class="fil2" id="path3520" fill-rule="nonzero"/></g><g id="g3522" fill="#2b2a29"><path id="path3524" d="M2253 826c38 0 68 31 68 68 0 38-30 69-68 69s-69-31-69-69c0-37 31-68 69-68z" class="fil1"/><path d="M2376 894h-110v-5h-1v-1l-1-1v-1h-1v-1l-1-1h-1v-1h-1l-1-1h-1v-1h-5V771h6l6 1 6 1 7 1 6 1 5 2 6 2 6 2 5 2 5 3 6 3 5 3 4 4 5 4 5 3 4 4 4 4 4 5 3 5 4 5 3 5 3 5 3 5 2 5 2 6 2 6 2 6 1 5 1 7 1 6 1 6v6zm-123 123V908h2l1-1h3v-1h1l1-1 1-1h1v-1h1v-1l1-1v-1l1-1v-5h110v7l-1 6-1 6-1 6-1 6-2 6-2 5-2 6-2 6-3 5-3 5-3 5-4 5-3 4-4 5-4 4-4 4-5 4-5 4-4 3-5 3-6 3-5 3-5 2-6 3-6 2-5 1-6 2-7 1-6 1h-12zm-123-123h109v3l1 1v2l1 1v1l1 1h1v1h1v1h1v1h1l1 1h2l1 1h3v109h-13l-6-1-6-1-6-2-6-1-5-2-6-3-6-2-5-3-5-3-5-3-5-3-5-4-4-4-4-4-4-4-4-5-4-4-3-5-3-5-3-5-3-5-2-6-3-6-2-5-1-6-2-6-1-6-1-6v-13zm123-123v110h-5v1h-2v1h-1l-1 1-1 1-1 1-1 1v1l-1 1v2l-1 1v2h-109v-12l1-6 1-7 2-5 1-6 2-6 3-6 2-5 3-5 3-5 3-5 3-5 4-5 4-5 4-4 4-4 4-3 5-4 5-4 5-3 5-3 5-3 6-2 6-2 5-2 6-2 6-1 6-1 6-1 7-1h6z" class="fil2" id="path3526" fill-rule="nonzero"/></g><g id="g3528" fill="#2b2a29"><path id="path3530" d="M2192 1248c38 0 69 31 69 69s-31 68-69 68c-37 0-68-30-68-68s31-69 68-69z" class="fil1"/><path d="M2315 1317h-109v-4l-1-1v-2h-1v-1l-1-1-1-1-1-1-1-1h-1l-1-1h-2l-1-1h-3v-109h13l6 1 6 1 6 2 6 1 6 2 6 3 5 2 5 3 5 3 5 3 5 3 5 4 4 4 4 4 4 4 4 5 4 4 3 5 4 5 2 5 3 5 3 6 2 6 2 5 2 6 1 6 1 6 1 6v13zm-123 123v-110h5l1-1h1l1-1h1v-1h1v-1h1v-1l1-1 1-1v-2l1-1v-3h109v12l-1 6-1 7-1 5-2 6-2 6-2 6-3 5-3 6-2 5-4 5-3 4-4 5-4 5-4 4-4 4-4 3-5 4-5 4-5 3-5 3-5 3-5 2-6 2-6 2-6 2-6 1-6 1-6 1-6 1h-7zm-122-123h109v4l1 1v1l1 1 1 1v1h1v1h1v1h1l1 1h1l1 1h4v110h-6l-6-1-6-1-6-1-6-1-6-2-6-2-6-2-5-2-5-3-5-3-5-3-5-4-5-4-4-3-4-4-4-4-4-5-4-5-3-4-4-5-3-6-2-5-3-5-2-6-2-6-2-6-1-5-1-7-1-6v-12zm122-123v109h-2l-1 1h-2l-1 1h-1l-1 1-1 1-1 1-1 1v1h-1v2h-1v5h-109v-13l1-6 1-6 1-6 2-6 2-5 2-6 3-6 2-5 3-5 4-5 3-5 4-4 4-5 4-4 4-4 4-4 5-4 5-3 5-3 5-3 5-3 5-2 6-3 6-2 6-1 6-2 6-1 6-1h12z" class="fil2" id="path3532" fill-rule="nonzero"/></g><circle id="circle3534" r="68" cy="1739" cx="2132" class="fil1 str0" fill="#2b2a29" stroke="#2b2a29" stroke-width="109.301"/><g id="g3536" fill="#2b2a29"><path id="path3538" d="M2192 2093c38 0 69 31 69 69 0 37-31 68-69 68-37 0-68-31-68-68 0-38 31-69 68-69z" class="fil1"/><path d="M2315 2162h-109v-4l-1-1v-2h-1v-1l-1-1-1-1-1-1-1-1h-1l-1-1h-2l-1-1h-3v-109h13l6 1 6 1 6 2 6 1 6 2 6 3 5 2 5 3 5 3 5 3 5 3 5 4 4 4 4 4 4 4 4 5 4 4 3 5 4 5 2 5 3 5 3 6 2 6 2 5 2 6 1 6 1 6 1 6v13zm-123 123v-110h5l1-1h1l1-1h1v-1h1v-1h1v-1l1-1 1-1v-2l1-1v-3h109v12l-1 6-1 7-1 5-2 6-2 6-2 6-3 5-3 6-2 5-4 4-3 5-4 5-4 5-4 4-4 4-4 3-5 4-5 4-5 3-5 3-5 3-5 2-6 2-6 2-6 2-6 1-6 1-6 1-6 1h-7zm-122-123h109v4l1 1v1l1 1 1 1v1h1v1h1v1h1l1 1h1l1 1h4v110h-6l-6-1-6-1-6-1-6-1-6-2-6-2-6-2-5-2-5-3-5-3-5-3-5-4-5-4-4-3-4-4-4-4-4-5-4-5-3-4-4-5-3-6-2-5-3-5-2-6-2-6-2-6-1-5-1-7-1-6v-12zm122-123v109h-2l-1 1h-2l-1 1h-1l-1 1-1 1-1 1-1 1v1h-1v2h-1v5h-109v-13l1-6 1-6 1-6 2-6 2-5 2-6 3-6 2-5 3-5 4-5 3-5 4-4 4-5 4-4 4-4 4-4 5-4 5-3 5-3 5-3 5-3 5-2 6-3 6-2 6-1 6-2 6-1 6-1h12z" class="fil2" id="path3540" fill-rule="nonzero"/></g></g></g><g id="g3637" fill-rule="evenodd"><g id="Layer_x0020_1-52" transform="matrix(.0083 0 0 .0083 33.357 -55.562)"><path id="rect3610" class="fil0 str0" fill="none" stroke="#2b2a29" stroke-width="71.927" d="M36 36h1408v1656H36z"/><path id="line3612" class="fil0 str1" fill="none" stroke="#2b2a29" stroke-width="57.552" d="M212 295h776"/><path id="line3614" class="fil0 str1" fill="none" stroke="#2b2a29" stroke-width="57.552" d="M212 533h921"/><path id="line3616" class="fil0 str1" fill="none" stroke="#2b2a29" stroke-width="57.552" d="M202 802h817"/><path id="line3618" class="fil0 str1" fill="none" stroke="#2b2a29" stroke-width="57.552" d="M202 1030h942"/><path id="line3620" class="fil0 str1" fill="none" stroke="#2b2a29" stroke-width="57.552" d="M212 1299h776"/><circle id="circle3622" r="50" cy="1494" cx="318" class="fil1 str2" fill="#2b2a29" stroke="#2b2a29" stroke-width="33.984"/><circle id="circle3624" r="50" cy="1494" cx="626" class="fil1 str2" fill="#2b2a29" stroke="#2b2a29" stroke-width="33.984"/><path id="rect3626" transform="matrix(.5894 .4127 -.3957 .565 1571.52 254.543)" class="fil1 str2" fill="#2b2a29" stroke="#2b2a29" stroke-width="33.984" d="M0 0h173v1396H0z"/><path id="rect3628" transform="matrix(.5894 .4127 -.0298 .0425 1654.67 135.786)" class="fil1 str2" fill="#2b2a29" stroke="#2b2a29" stroke-width="33.984" d="M0 0h173v1396H0z"/><path id="polygon3630" class="fil1" fill="#2b2a29" d="M994 1189l12-144 118 83z"/></g></g></svg>