<svg xmlns="http://www.w3.org/2000/svg" width="15" height="14" viewBox="0 0 15 14" id="svg2"><defs id="defs8"><style id="style3016"/><style id="style3078"/></defs><path d="M23.805 11.356q0-.414-.293-.707-.293-.294-.707-.294t-.707.293q-.293.292-.293.706t.293.707q.293.293.707.293t.707-.293q.293-.293.293-.707zm-3-4h3v-2H22.57q-.108.016-.17.07L20.875 6.95q-.055.093-.07.17v.235zm10 4q0-.414-.293-.707-.293-.294-.707-.294t-.707.293q-.293.292-.293.706t.293.707q.293.293.707.293t.707-.293q.293-.293.293-.707zm1-5.25v-1.5q0-.11-.07-.18-.07-.07-.18-.07h-1.75v-1.75q0-.11-.07-.18-.07-.07-.18-.07h-1.5q-.11 0-.18.07-.07.07-.07.18v1.75h-1.75q-.11 0-.18.07-.07.07-.07.18v1.5q0 .11.07.18.07.07.18.07h1.75v1.75q0 .11.07.18.07.07.18.07h1.5q.11 0 .18-.07.07-.07.07-.18v-1.75h1.75q.11 0 .18-.07.07-.07.07-.18zm2-4.25v9q0 .203-.148.352-.148.15-.352.148h-1.5q0 .828-.586 1.414-.587.586-1.415.586-.828 0-1.414-.586-.585-.586-.585-1.414h-3q0 .828-.586 1.414-.587.586-1.415.586-.828 0-1.414-.586-.585-.586-.585-1.414h-1q-.203 0-.352-.148-.15-.148-.148-.352 0-.204.148-.352.147-.148.352-.148v-3.25q0-.203.102-.453t.25-.398l1.547-1.547q.148-.148.398-.25.25-.102.453-.102h1.25v-2.5q0-.203.148-.352.148-.15.352-.148h9q.203 0 .352.148.15.148.148.352z" id="path4" fill="#444"/><g id="g3038" fill-rule="evenodd"><g id="Layer_x0020_1"><g id="_735520576"><g id="g3021"><path id="polygon3023" fill="#2b2a29" d="M-16.033 2.842l-.448.598-.3.597-.15.747.15.598.15.747.447 1.044.3.598.148.15v1.196l-.298.297-.3.448-.148.45v1.043l.148.3.15.298V13.15h2.39l.15-.896V11.06l.148-.898.3-1.045.148-.747V4.935l-.15-.45-.148-.297-.3-.45-.447-.297-.3-.3-.3-.15v-.148l.15-.15v-.298l.15-.15h.747l.15-.298v-.598h.15v-.3l-.15-.148V-.295l-.15-.15-.3-.15-.148-.148-.3-.15h-.448l-.747.15-.448.3-.3.745.15.747.448.597-.15.598z"/><path d="M-15.735 3.14c0 .15-.597.748-.597 1.495v.896c0 .15 0 .3.15.3 0 .15 0 .3.15.448l.297.598.3.597c.15.3.15.598.15.598.148.15 0 .897-.15 1.047 0 0-.15.298-.15.448l-.15.15" id="path3025" fill="none" stroke="#fefefe" stroke-width=".313719"/></g><g id="g3027" stroke="#2b2a29" transform="matrix(.1494 0 0 .1494 -23.055 -.893)"><circle cx="26" cy="52" r="12" id="circle3029" fill="none" stroke-width="3.15"/><path transform="matrix(.1602 .178 -.1942 .1748 11.945 61.823)" id="rect3031" fill="#2b2a29" stroke-width="2.48" d="M0 0h14.7v52.502H0z"/></g></g></g></g><g id="g3100" fill-rule="evenodd"><g id="Layer_x0020_1-1"><g id="_742870944" fill="#2b2a29" transform="matrix(.1632 0 0 .1632 .544 -.02)"><circle cx="70" cy="7" r="7" id="circle3083"/><path id="rect3085" d="M65 15h11.73v33.24H65z"/><path id="rect3087" d="M67 46h6.843v39.666H67z"/><g id="g3089"><rect width="34.217" height="23.463" rx="4" ry="4" y="27" id="rect3091"/><path id="polygon3093" d="M49 47l-11-5v-7l11-5z"/></g></g></g></g></svg>